<svg id="Capa_1" enable-background="new 0 0 512 512" height="512" viewBox="0 0 512 512" width="512" xmlns="http://www.w3.org/2000/svg"><g><g><g><g><circle cx="245" cy="256" fill="#ffe5c2" r="245"/></g></g><path d="m209.125 152c1.723-11.554 11.71-20.445 23.735-20.445h24.279c12.025 0 22.012 8.891 23.735 20.445h20.109c-1.818-22.604-20.78-40.445-43.844-40.445h-24.279c-23.064 0-42.026 17.841-43.844 40.445z" fill="#a44f3e"/><path d="m287.712 277.801v19.199c0 2.206-1.794 4-4 4h-77.424c-2.206 0-4-1.794-4-4v-19.199l-117.288-26.435v72.252c11.626 27.398 30.095 51.213 53.246 69.301h213.514c23.148-18.087 41.615-41.9 53.24-69.295v-72.258z" fill="#a44f3e"/><path d="m125 357.067v-96.685l-40-9.016v72.252c11.626 27.398 30.095 51.213 53.246 69.301h22.606c-19.8 0-35.852-16.052-35.852-35.852z" fill="#883f2e"/><path d="m161 362.279v-64c0-2.761-2.239-5-5-5h-48c-2.761 0-5 2.239-5 5v57.654c2.757 3.905 5.677 7.687 8.738 11.346h44.262c2.761 0 5-2.239 5-5z" fill="#ca6e59"/><g><g><path d="m140.623 429.691h104.377v-1c-95.234 0-172.714-77.479-172.714-172.714 0-69.713 42.17-132.572 105.879-159.313 4.916-2.063 7.396-7.572 5.607-12.594l-3.362-9.438c-1.911-5.365-7.928-8.095-13.187-5.91-75.147 31.228-124.937 105.197-124.937 187.256 0 73.626 39.46 138.204 98.337 173.713z" fill="#fe5694"/></g><g><path d="m140.623 429.691h17.03c-58.891-35.503-98.366-100.078-98.366-173.714 0-79.915 47.226-152.15 119.103-184.714-2.737-3.018-7.168-4.203-11.166-2.542-75.148 31.229-124.938 105.198-124.938 187.257 0 73.626 39.46 138.204 98.337 173.713z" fill="#fd3581"/></g><g><g><path d="m349.104 428.691c-30.41 18.399-66.042 29-104.104 29h-11v1h222.489v-30z" fill="#fd3581"/></g><g><g><path d="m460.144 478.924 50.51-33.386c1.807-1.194 1.791-3.852-.03-5.025l-50.51-32.534c-1.996-1.286-4.625.147-4.625 2.522v65.92c.001 2.391 2.661 3.821 4.655 2.503z" fill="#fe5694"/></g></g><path d="m460.114 430.219 37.334 24.047 13.206-8.729c1.807-1.194 1.791-3.852-.03-5.025l-50.51-32.534c-1.996-1.286-4.625.147-4.625 2.522v22.241c.001-2.374 2.629-3.808 4.625-2.522z" fill="#fd3581"/></g></g><path d="m252.136 53.403v30.02c91.937 3.756 165.578 79.712 165.578 172.555 0 95.234-77.479 172.714-172.714 172.714h-173.778c11.038 11.107 23.133 21.161 36.123 30h137.655c111.776 0 202.714-90.938 202.714-202.714 0-109.387-87.095-198.801-195.578-202.575z" fill="#54469c"/><g><g><path d="m248.496 102.973-50.51-32.96c-1.814-1.184-1.814-3.841 0-5.025l50.51-32.96c1.995-1.302 4.639.13 4.639 2.512v65.92c.001 2.383-2.643 3.815-4.639 2.513z" fill="#6e61b6"/></g></g><path d="m248.496 81.438-37.86-24.705-12.65 8.255c-1.814 1.184-1.814 3.841 0 5.025l50.51 32.96c1.996 1.302 4.64-.13 4.64-2.512v-21.536c0 2.383-2.644 3.815-4.64 2.513z" fill="#6354b1"/></g><path d="m406.5 151h-323c-5.247 0-9.5 4.253-9.5 9.5v81.815c0 4.442 3.078 8.291 7.411 9.267l120.877 27.244v-13.226c0-2.206 1.794-4 4-4h77.424c2.206 0 4 1.794 4 4v13.226l120.877-27.244c4.333-.977 7.411-4.826 7.411-9.267v-81.815c0-5.247-4.253-9.5-9.5-9.5z" fill="#ca6e59"/><path d="m202.288 265.601c0-1.532.875-2.85 2.143-3.521l-83.02-18.712c-4.333-.977-7.411-4.826-7.411-9.268v-81.815c0-.437.04-.864.097-1.285h-30.597c-5.247 0-9.5 4.253-9.5 9.5v81.815c0 4.442 3.078 8.291 7.411 9.267l120.877 27.244z" fill="#bb5d4c"/><g><path d="m283.711 260.601h-77.423c-2.761 0-5 2.239-5 5v31.399c0 2.761 2.239 5 5 5h77.423c2.761 0 5-2.239 5-5v-31.399c0-2.761-2.238-5-5-5z" fill="#fff"/></g><path d="m223 287.399c-2.761 0-5-2.239-5-5v-21.798h-11.711c-2.761 0-5 2.239-5 5v31.399c0 2.761 2.239 5 5 5h77.423c2.761 0 5-2.239 5-5v-9.601z" fill="#f2fbff"/></g></svg>