<svg id="Layer_1" enable-background="new 0 0 497 497" height="512" viewBox="0 0 497 497" width="512" xmlns="http://www.w3.org/2000/svg"><g><g><g><path d="m0 410.645v-365.74c0-5.523 4.477-10 10-10h477c5.523 0 10 4.477 10 10v365.739c0 5.523-4.477 10-10 10h-477c-5.523.001-10-4.477-10-9.999z" fill="#fed23a"/><path d="m30.679 390.039h435.642v-324.528h-435.642z" fill="#fff9e9"/><path d="m426.321 65.511h40v324.528h-40z" fill="#fff4d6"/><g fill="#fae19e"><path d="m89.763 135.791h258.547c4.143 0 7.5-3.358 7.5-7.5s-3.357-7.5-7.5-7.5h-258.547c-4.143 0-7.5 3.358-7.5 7.5s3.357 7.5 7.5 7.5z"/><path d="m407.237 166.408h-317.474c-4.143 0-7.5 3.358-7.5 7.5s3.357 7.5 7.5 7.5h317.475c4.143 0 7.5-3.358 7.5-7.5s-3.358-7.5-7.501-7.5z"/><path d="m270.137 212.026h-180.374c-4.143 0-7.5 3.358-7.5 7.5s3.357 7.5 7.5 7.5h180.374c4.143 0 7.5-3.358 7.5-7.5s-3.358-7.5-7.5-7.5z"/></g><path d="m217.341 323.982c-12.73.035-25.46.065-38.19.086-4.089.007-8.179.012-12.268.015-3.129.002-6.506.555-9.15-1.465-2.959-2.26-3.977-5.452-4.654-8.968-1.467-7.615-12.451-6.645-14.464 0-.891 2.943-5.391 11.368-9.322 10.679-2.083-.365-2.993-3.578-3.763-5.242-1.499-3.239-2.591-6.672-3.526-10.112-3.948-14.534-4.736-29.709-7.206-44.517-1.432-8.587-14.521-6.159-14.732 1.994-.672 25.971-4.918 51.586-14.164 75.929-3.431 9.033 11.064 12.939 14.464 3.988 3.565-9.386 6.395-18.997 8.591-28.751 1.178 3.554 2.583 7.04 4.298 10.431 4.38 8.656 13.313 13.777 22.871 9.927 3.411-1.374 6.523-3.776 9.172-6.699.374.431.751.857 1.145 1.255 7.274 7.343 16.842 6.557 26.357 6.545 14.847-.019 29.694-.054 44.542-.095 9.65-.027 9.668-15.027-.001-15z" fill="#54b1ff"/></g></g><path d="m383.388 462.095-21.5-10-21.5 10v-129h43z" fill="#ffabe7"/><g><path d="m361.888 358.032c-7.587 0-12.555-12.914-19.152-15.655-6.839-2.841-19.443 2.664-24.597-2.5-5.154-5.163.341-17.79-2.495-24.641-2.736-6.609-15.626-11.586-15.626-19.187 0-7.6 12.89-12.577 15.626-19.187 2.836-6.851-2.659-19.478 2.495-24.641s17.758.342 24.596-2.499c6.597-2.741 11.565-15.655 19.152-15.655s12.555 12.914 19.152 15.655c6.839 2.841 19.443-2.664 24.597 2.5 5.154 5.163-.341 17.79 2.495 24.641 2.736 6.609 15.626 11.586 15.626 19.187 0 7.6-12.89 12.577-15.626 19.187-2.836 6.851 2.659 19.478-2.495 24.641s-17.758-.342-24.596 2.499c-6.597 2.741-11.565 15.655-19.152 15.655z" fill="#ff6ed4"/></g><path d="m408.131 276.863c-2.836-6.851 2.659-19.478-2.495-24.641s-17.758.341-24.597-2.5c-6.597-2.741-11.565-15.655-19.152-15.655s-12.555 12.914-19.152 15.655c-.273.113-.558.209-.848.297 6.987 2.118 18.8-2.755 23.748 2.203 5.154 5.163-.341 17.79 2.495 24.641 2.736 6.609 15.626 11.586 15.626 19.187s-12.89 12.578-15.626 19.187c-2.836 6.851 2.659 19.478-2.495 24.641-4.948 4.957-16.761.085-23.748 2.203.29.088.575.184.848.297 6.597 2.741 11.565 15.655 19.152 15.655s12.554-12.914 19.152-15.655c6.839-2.841 19.443 2.664 24.596-2.5 5.154-5.163-.341-17.79 2.495-24.641 2.736-6.609 15.626-11.586 15.626-19.187.001-7.601-12.889-12.578-15.625-19.187z" fill="#ff5ccf"/><circle cx="361.888" cy="296.05" fill="#ffabe7" r="21.794"/></g></svg>