<svg id="Capa_1" enable-background="new 0 0 512 512" height="512" viewBox="0 0 512 512" width="512" xmlns="http://www.w3.org/2000/svg"><g><g><path d="m347 512h-106v-30h106c57.891 0 105-47.109 105-105v-32h30v32c0 74.443-60.557 135-135 135z" fill="#e6f3ff"/></g><path d="m452 377c0 57.891-47.109 105-105 105h-91v30h91c74.443 0 135-60.557 135-135v-32h-30z" fill="#3e454d"/><g><path d="m482 225h-30c0-107.52-88.48-195-196-195s-196 87.48-196 195h-30c0-124.072 101.928-225 226-225s226 100.928 226 225z" fill="#515f66"/></g><path d="m452 225h30c0-124.072-101.928-225-226-225v30c107.52 0 196 87.48 196 195z" fill="#3e454d"/><g><path d="m121 360h-76c-24.814 0-45-20.186-45-45v-60c0-24.814 20.186-45 45-45h76z" fill="#515f66"/></g><g><path d="m467 360h-76v-150h76c24.814 0 45 20.186 45 45v60c0 24.814-20.186 45-45 45z" fill="#3e454d"/></g><g><path d="m256 450c-90.967 0-165-74.019-165-165s74.033-165 165-165 165 74.019 165 165-74.033 165-165 165z" fill="#a0e65c"/></g><path d="m421 285c0-90.981-74.033-165-165-165v330c90.967 0 165-74.019 165-165z" fill="#7acc52"/><g><path d="m301 240c0 15.901-8.699 30.901-22.5 39-4.501 2.701-7.5 7.5-7.5 12.9v23.1h-30v-23.101c0-12.599 5.7-24.899 15-33.3 6.064-6.064 15-7.837 15-18.6 0-8.401-6.599-15-15-15s-15 6.599-15 15h-30c0-24.901 20.099-45 45-45s45 20.1 45 45.001z" fill="#515f66"/></g><g><path d="m241 345h30v30h-30z" fill="#515f66"/></g><path d="m256 345h15v30h-15z" fill="#515f66"/><path d="m301 240c0 15.901-8.699 30.901-22.5 39-4.501 2.701-7.5 7.5-7.5 12.9v23.1h-15v-56.4c6.064-6.064 15-7.837 15-18.6 0-8.401-6.599-15-15-15v-30c24.901 0 45 20.099 45 45z" fill="#3e454d"/></g></svg>