<?xml version="1.0" encoding="iso-8859-1"?>
<!-- Generator: Adobe Illustrator 21.0.0, SVG Export Plug-In . SVG Version: 6.00 Build 0)  -->
<svg xmlns="http://www.w3.org/2000/svg" xmlns:xlink="http://www.w3.org/1999/xlink" version="1.1" id="Capa_1" x="0px" y="0px" viewBox="0 0 512 512" style="enable-background:new 0 0 512 512;" xml:space="preserve" width="512" height="512">
<g>
	<g>
		<path style="fill:#85D3FD;" d="M512,78.257L0,76.911l94.26,93.687L69.624,339.858l105.313-40.252l85.285,135.483L512,78.257z     M132.245,209.911L69.624,339.858l51.517-162.493L512,78.257L132.245,209.911z"/>
		<path style="fill:#22B8F9;" d="M512,78.257L123,209.058L69.624,339.858l105.313-40.252l85.285,135.483L512,78.257z"/>
	</g>
	<polygon style="fill:#0082FF;" points="123,209.058 69.624,339.858 94.26,170.597 512,78.257  "/>
	<polygon style="fill:#00317E;" points="174.937,299.606 123,209.058 69.624,339.858  "/>
	<g>
		<polygon style="fill:#85D3FD;" points="260.333,165.505 260.333,434.932 512,78.257   "/>
		<polygon style="fill:#22B8F9;" points="260.333,142.071 512,78.257 260.333,77.595   "/>
		<polygon style="fill:#0082FF;" points="260.333,162.88 260.222,435.089 512,78.257   "/>
	</g>
	<polygon style="fill:#00317E;" points="260.333,133.887 260.333,162.88 512,78.257  "/>
	<g>
		<path style="fill:#FFDA2D;" d="M383.395,170.38c-59.798,0-108.447,48.649-108.447,108.448    c0,59.798,48.649,108.447,108.447,108.447c59.799,0,108.448-48.649,108.448-108.447    C491.843,219.029,443.193,170.38,383.395,170.38z"/>
		<path style="fill:#FDBF00;" d="M383.395,170.38v216.895c59.799,0,108.448-48.649,108.448-108.447    C491.843,219.029,443.193,170.38,383.395,170.38z"/>
		<g>
			<g>
				<path style="fill:#FC1D5A;" d="M402.135,236.405v86.613h-29.201v-64.589h-14.848v-22.024H402.135z"/>
			</g>
		</g>
		<g>
			<rect x="383.395" y="236.405" style="fill:#DD0057;" width="18.74" height="86.613"/>
		</g>
	</g>
</g>















</svg>
