<svg fill="#fff" height="512pt" viewBox="0 0 512 512" width="512pt" xmlns="http://www.w3.org/2000/svg">
    <path d="m345.851562 287.507812c-12.546874-7.425781-34.46875-25.585937-54.894531-6.148437-4.820312 4.90625-8.011719 8.191406-10.074219 10.300781-18.554687-8.789062-51.546874-40.644531-60.101562-60.746094 30.3125-27.554687 16.28125-37.382812-13.53125-94.003906-5.09375-8.789062-13.351562-14.621094-23.429688-14.621094-12.34375 0-17.167968 6.082032-34.800781 23.925782-22.078125 22.335937-35.035156 29.351562-26.730469 67.199218 23.632813 107.734376 181.347657 215.632813 226.011719 167.398438 36.480469-36.234375 43.515625-39.667969 41.378907-56.054688-2.691407-16.316406-15.210938-20.316406-43.828126-37.25zm-19.535156 72.890626c-2.550781 2.832031-17.824218 3.765624-43.160156-6.75-48.042969-19.9375-97.878906-72.257813-118.300781-111.316407-6.503907-12.441406-20.886719-49.332031-12.902344-56.527343 3.265625-3.097657 25.222656-25.519532 30.839844-30.953126 14.953125 28.34375 22.234375 41.59375 24.652343 46.992188-4.300781 6.640625-18.054687 11.839844-18.054687 28.128906 6.050781 31.824219 47.453125 70.824219 72.199219 85.335938 25.257812 14.8125 33.339844 4.910156 42.539062-4.519532 8.214844-8.414062 7.511719-7.902343 8.367188-7.988281l45.183594 26.554688c-5.296876 5.539062-27.707032 27.199219-31.363282 31.042969zm0 0"/>
    <path d="m256 0c-141.503906 0-256 114.515625-256 256 0 141.503906 114.515625 256 256 256 141.503906 0 256-114.515625 256-256 0-141.503906-114.515625-256-256-256zm0 482c-124.921875 0-226-101.097656-226-226 0-124.921875 101.097656-226 226-226 124.921875 0 226 101.097656 226 226 0 124.921875-101.097656 226-226 226zm0 0"/>
</svg>