<?xml version="1.0" encoding="utf-8"?>
<!-- Generator: Adobe Illustrator 25.2.3, SVG Export Plug-In . SVG Version: 6.00 Build 0)  -->
<svg version="1.1" id="Layer_1" xmlns="http://www.w3.org/2000/svg" xmlns:xlink="http://www.w3.org/1999/xlink" x="0px" y="0px"
	 viewBox="0 0 4960 3508" style="enable-background:new 0 0 4960 3508;" xml:space="preserve">
<style type="text/css">
	.st0{fill:url(#SVGID_1_);}
	.st1{fill:url(#SVGID_2_);}
	.st2{fill:#FFFFFF;}
	.st3{fill:none;}
	.st4{fill:url(#SVGID_3_);}
	.st5{fill:#003378;}
	.st6{fill:#00142F;}
	.st7{fill:#FFFFFF;filter:url(#Adobe_OpacityMaskFilter);}
	.st8{mask:url(#path-37-outside-1_1_);fill:#FFFFFF;}
	.st9{fill:url(#SVGID_6_);}
	.st10{fill:#C8DAEA;}
	.st11{fill:#A9C9DD;}
	.st12{fill:url(#SVGID_7_);}
	.st13{fill:#CD9A59;stroke:#CC9958;stroke-miterlimit:10;}
	.st14{fill:#FCFCFC;}
</style>
<linearGradient id="SVGID_1_" gradientUnits="userSpaceOnUse" x1="2480" y1="3508" x2="2480" y2="0" gradientTransform="matrix(1 0 0 -1 0 3508)">
	<stop  offset="0" style="stop-color:#17AEFF"/>
	<stop  offset="1" style="stop-color:#008BDB"/>
</linearGradient>
<rect class="st0" width="4960" height="3508"/>
<linearGradient id="SVGID_2_" gradientUnits="userSpaceOnUse" x1="2300" y1="3508" x2="2300" y2="0" gradientTransform="matrix(1 0 0 -1 0 3508)">
	<stop  offset="0" style="stop-color:#17AEFF"/>
	<stop  offset="1" style="stop-color:#008BDB"/>
</linearGradient>
<rect x="2120" class="st1" width="360" height="3508"/>
<path class="st2" d="M2264.7,228.6c0-1.1,0.4-2.1,1.2-2.8c0.8-0.8,1.7-1.2,2.8-1.2c1.2,0,2.1,0.4,2.9,1.1c0.8,0.8,1.1,1.7,1.1,2.8
	c0,1.1-0.4,2.1-1.1,2.9c-0.8,0.8-1.7,1.1-2.9,1.1c-1.1,0-2.1-0.4-2.8-1.1C2265.1,230.7,2264.7,229.7,2264.7,228.6z M2231.3,231.7
	v-6.3h28.6v6.3H2231.3z"/>
<path class="st2" d="M2260.5,252.8c0,3.4-1,6.1-3.1,8.2c-2.1,2.1-4.8,3.1-8.2,3.1h-18v-6.2h15.9c2.2,0,4-0.6,5.3-1.9
	c1.3-1.3,2-3,2-5.2c0-2.3-0.7-4.1-2.1-5.5c-1.4-1.4-3.1-2.1-5.3-2.1h-15.8v-6.3h28.6v6.3h-3.9C2259,245.4,2260.5,248.6,2260.5,252.8
	z"/>
<path class="st2" d="M2255.6,291.1h4.3v6.3h-25.5c-4.3,0-7.8-1.3-10.5-4c-2.6-2.7-3.9-6.2-3.9-10.6c0-3.7,0.9-6.8,2.9-9.3
	c1.9-2.5,4.5-4.2,7.8-5v6.4c-1.5,0.5-2.7,1.5-3.5,2.9c-0.9,1.4-1.3,3.1-1.3,5c0,2.5,0.8,4.5,2.4,6c1.6,1.5,3.7,2.3,6.3,2.3h1.8
	c-3.3-2.5-4.9-5.8-4.9-10c0-4,1.4-7.4,4.2-10c2.8-2.7,6.2-4,10.4-4c4.2,0,7.6,1.3,10.5,4c2.8,2.6,4.2,6,4.2,10
	C2260.5,285.3,2258.9,288.6,2255.6,291.1z M2237.1,282.3c0,2.5,0.8,4.6,2.5,6.2c1.7,1.7,3.8,2.5,6.3,2.5c2.5,0,4.6-0.9,6.3-2.5
	s2.6-3.8,2.6-6.2c0-2.5-0.9-4.6-2.6-6.3c-1.7-1.7-3.8-2.5-6.3-2.5c-2.5,0-4.6,0.9-6.3,2.5C2237.9,277.7,2237.1,279.8,2237.1,282.3z"
	/>
<path class="st2" d="M2260.5,318.7c0,4-1.4,7.3-4.3,10c-2.9,2.7-6.4,4-10.7,4c-4.3,0-7.8-1.3-10.7-4c-2.9-2.7-4.3-6-4.3-10
	c0-4.2,1.7-7.6,5.1-10h-4.4v-6.3h40.4v6.3h-16.2C2258.9,311.1,2260.5,314.5,2260.5,318.7z M2239.2,311.2c-1.7,1.7-2.6,3.8-2.6,6.3
	s0.9,4.6,2.6,6.3c1.7,1.7,3.8,2.5,6.4,2.5c2.5,0,4.6-0.9,6.3-2.5c1.7-1.7,2.6-3.8,2.6-6.3s-0.9-4.6-2.6-6.3s-3.8-2.5-6.3-2.5
	C2243.1,308.6,2240.9,309.5,2239.2,311.2z"/>
<path class="st2" d="M2230.6,349.7c0-4.4,1.4-8,4.3-10.9c2.9-2.9,6.4-4.3,10.7-4.3c4.2,0,7.8,1.4,10.7,4.3c2.9,2.9,4.3,6.5,4.3,10.9
	c0,4.3-1.4,8-4.3,10.9c-2.9,2.9-6.4,4.3-10.7,4.3c-4.3,0-7.9-1.4-10.7-4.3C2232.1,357.7,2230.6,354.1,2230.6,349.7z M2239.2,343.5
	c-1.7,1.7-2.6,3.8-2.6,6.3c0,2.5,0.9,4.6,2.6,6.2c1.7,1.7,3.8,2.5,6.4,2.5c2.5,0,4.6-0.9,6.3-2.5s2.6-3.8,2.6-6.2
	c0-2.5-0.9-4.6-2.6-6.3c-1.7-1.7-3.8-2.5-6.3-2.5C2243,340.9,2240.9,341.8,2239.2,343.5z"/>
<path class="st2" d="M2230.6,381.9c0-4.4,1.4-8,4.3-10.9c2.9-2.9,6.4-4.3,10.7-4.3c4.2,0,7.8,1.4,10.7,4.3c2.9,2.9,4.3,6.5,4.3,10.9
	c0,4.3-1.4,8-4.3,10.9c-2.9,2.9-6.4,4.3-10.7,4.3c-4.3,0-7.9-1.4-10.7-4.3C2232.1,389.8,2230.6,386.2,2230.6,381.9z M2239.2,375.6
	c-1.7,1.7-2.6,3.8-2.6,6.3s0.9,4.6,2.6,6.2c1.7,1.7,3.8,2.5,6.4,2.5c2.5,0,4.6-0.9,6.3-2.5c1.7-1.7,2.6-3.8,2.6-6.2
	s-0.9-4.6-2.6-6.3c-1.7-1.7-3.8-2.6-6.3-2.6C2243,373,2240.9,373.9,2239.2,375.6z"/>
<path class="st2" d="M2245.6,213.1c3.8,5.7,8.8,8.4,14.2,8.4v-6.9c-4.2,0-8-2.5-11-6.8c-0.4-0.5-0.7-1-1-1.6h0.6h23.3V200h-40.4v6.3
	h11.9h0.2c-0.3,0.6-0.7,1.1-1,1.6c-3,4.2-6.8,6.8-11,6.8v6.9C2236.8,221.6,2241.7,218.8,2245.6,213.1z"/>
<path class="st2" d="M2245.6,413.6c3.8,5.7,8.8,8.4,14.2,8.4v-6.9c-4.2,0-8-2.5-11-6.8c-0.4-0.5-0.7-1-1-1.6h0.6h23.3v-6.3h-40.4
	v6.3h11.9h0.2c-0.3,0.6-0.7,1.1-1,1.6c-3,4.2-6.8,6.8-11,6.8v6.9C2236.8,422,2241.7,419.2,2245.6,413.6z"/>
<path class="st2" d="M2311.2,378.1V243.9h-22.8v134.2H2311.2z"/>
<path class="st2" d="M2380,422l-23.2-8.4c-2.1-32.1-14.1-61.5-32.9-85.2c-2.2-2.8-4.5-5.5-7-8.1v-17.2c2.4-2.6,4.7-5.3,7-8.1
	c19.2-24,31.2-53.9,33-86.6l23.1-8.4c0,42.4-15.1,81.4-40.3,111.7C2364.6,341.7,2379.7,380.1,2380,422z"/>
<path class="st2" d="M2334,823.4h-7v16.5h-49v7.4h49v16.6h7V823.4z M2302.8,902.6v23.6h7v-23.6h17.2v25.6h7v-33h-56v33.4h7v-26
	H2302.8z M2334,969.1v-7.4h-56v31.6h7v-24.2H2334z M2302.8,1032.1v23.6h7v-23.6h17.2v25.6h7v-33h-56v33.4h7v-26H2302.8z
	 M2305.8,1116.7h-6.7v20.6c-8.7-1.5-14.8-8.7-14.8-19.9c0-6.6,2.1-11.9,6.2-16.1c4.2-4.1,9.4-6.2,15.5-6.2s11.4,2.1,15.5,6.2
	c4.2,4.1,6.3,9.4,6.3,15.8c0,7.8-4,14.7-10.1,17.9l3.8,6.4c4.1-2.3,7.3-5.7,9.8-10c2.5-4.3,3.8-9,3.8-14.2c0-8.4-2.8-15.4-8.5-21
	c-5.6-5.5-12.5-8.3-20.6-8.3s-15,2.8-20.6,8.3c-5.6,5.6-8.4,12.6-8.4,21.2c0,8.2,2.4,14.9,7.2,19.9c4.9,5,11,7.5,18.2,7.5h3.4
	V1116.7z M2278,1219.2l22.4-13.2c1.2,3.4,3.4,6.2,6.3,8.3c3,2.2,6.3,3.3,9.9,3.3c4.8,0,8.9-1.7,12.2-5.1c3.4-3.4,5.1-7.5,5.1-12.3
	v-22.4h-56v7.4h21.4v13.2L2278,1211V1219.2z M2327,1200.2c0,2.8-1,5.1-3,7c-2,2-4.5,3-7.4,3c-2.9,0-5.4-1-7.4-3c-2-1.9-3-4.2-3-7
	v-15h20.9V1200.2z M2278,1295.5l56-20.9v-8.4l-56-20.9v7.9l12.6,4.6v25.2l-12.6,4.6V1295.5z M2325.1,1270.3l-27.6,10.1v-20.1
	L2325.1,1270.3z M2334,1370.1l-29.6-17.8l29.6-17.8v-8.4h-56v7.4h43.7l-30.4,18.3v1l30.5,18.3H2278v7.4h56V1370.1z M2307,1490.4
	c2.8,4.1,6.7,6.1,11.7,6.1c4.3,0,7.9-1.5,10.9-4.6c3-3,4.4-6.7,4.4-11.1v-22.4h-56v24.2c0,4.6,1.5,8.4,4.6,11.5s6.8,4.7,11.3,4.7
	C2299.8,1498.8,2304.6,1495.6,2307,1490.4z M2327,1480.8c0,2.3-0.9,4.2-2.6,5.8c-1.7,1.7-3.7,2.5-6,2.5c-4.8,0-8.6-3.6-8.6-8.3v-15
	h17.1V1480.8z M2285,1465.9h18.2v16.7c0,2.5-0.9,4.6-2.6,6.2c-1.8,1.8-3.9,2.6-6.4,2.6c-5.1,0-9.1-3.8-9.1-8.9V1465.9z M2306,1528.7
	c-8.1,0-14.9,2.8-20.6,8.4c-5.7,5.6-8.5,12.5-8.5,20.6c0,8.1,2.8,15,8.5,20.6c5.7,5.7,12.5,8.5,20.6,8.5s15-2.8,20.6-8.5
	c5.7-5.6,8.5-12.5,8.5-20.6c0-8.1-2.8-15-8.5-20.6C2321,1531.5,2314.1,1528.7,2306,1528.7z M2306,1579.3c-6.2,0-11.3-2.1-15.5-6.2
	c-4.2-4.1-6.2-9.2-6.2-15.4c0-6.2,2.1-11.3,6.2-15.4c4.2-4.1,9.4-6.2,15.5-6.2s11.4,2.1,15.5,6.2c4.2,4.2,6.3,9.3,6.3,15.4
	c0,6.2-2.1,11.3-6.3,15.4C2317.4,1577.2,2312.2,1579.3,2306,1579.3z M2334,1611.9h-7v16.5h-49v7.4h49v16.6h7V1611.9z M2278,1750.7
	l56,20.1v-8.1l-46.7-16.2l46.7-16.2v-8l-56,20V1750.7z M2278,1801.3v7.4h56v-7.4H2278z M2334,1844.8h-56v21.8c0,7.6,2.7,13.9,8.1,19
	c5.4,5,12.1,7.6,19.9,7.6s14.5-2.6,19.8-7.6c5.4-5,8.2-11.4,8.2-19V1844.8z M2285,1852.2h41.9v14.4c0,5.7-2,10.4-6,14s-9,5.4-15,5.4
	s-11-1.8-15-5.4s-6-8.3-6-14V1852.2z M2302.8,1933.7v23.6h7v-23.6h17.2v25.6h7v-33h-56v33.4h7v-26H2302.8z M2306,1989.3
	c-8.1,0-14.9,2.8-20.6,8.4c-5.7,5.6-8.5,12.5-8.5,20.6s2.8,15,8.5,20.6c5.7,5.7,12.5,8.5,20.6,8.5s15-2.8,20.6-8.5
	c5.7-5.6,8.5-12.5,8.5-20.6s-2.8-15-8.5-20.6C2321,1992.1,2314.1,1989.3,2306,1989.3z M2306,2039.8c-6.2,0-11.3-2.1-15.5-6.2
	c-4.2-4.1-6.2-9.2-6.2-15.4s2.1-11.3,6.2-15.4c4.2-4.1,9.4-6.2,15.5-6.2s11.4,2.1,15.5,6.2c4.2,4.2,6.3,9.3,6.3,15.4
	s-2.1,11.3-6.3,15.4C2317.4,2037.8,2312.2,2039.8,2306,2039.8z M2334,2124.2h-56v21.8c0,7.6,2.7,13.9,8.1,19
	c5.4,5,12.1,7.6,19.9,7.6s14.5-2.6,19.8-7.6c5.4-5,8.2-11.4,8.2-19V2124.2z M2285,2131.7h41.9v14.4c0,5.7-2,10.4-6,14
	c-4,3.6-9,5.4-15,5.4s-11-1.8-15-5.4c-4-3.6-6-8.3-6-14V2131.7z M2278,2248.4l56-20.9v-8.4l-56-20.9v7.9l12.6,4.6v25.2l-12.6,4.6
	V2248.4z M2325.1,2223.3l-27.6,10.1v-20.1L2325.1,2223.3z M2278,2320.5l22.4-13.2c1.2,3.4,3.4,6.2,6.3,8.3c3,2.2,6.3,3.3,9.9,3.3
	c4.8,0,8.9-1.7,12.2-5.1c3.4-3.4,5.1-7.5,5.1-12.3V2279h-56v7.4h21.4v13.2l-21.4,12.6V2320.5z M2327,2301.4c0,2.8-1,5.1-3,7
	c-2,2-4.5,3-7.4,3c-2.9,0-5.4-1-7.4-3c-2-1.9-3-4.2-3-7v-15h20.9V2301.4z M2277,2369.2c0,5.8,1.4,10.4,4.3,14
	c3,3.6,6.9,5.4,11.8,5.4c3.5,0,6.4-0.8,8.4-2.8c1.6-1.4,2.5-2.1,3.7-4.3c1.2-2.2,1.6-2.8,2.6-5.6c0.6-1.4,0.9-2.3,1.1-3l1-3.3
	c1.4-4.3,2.7-7.4,4-9.1s3.1-2.6,5.6-2.6c5.1,0,8.3,4.1,8.3,10.2s-2.9,10.3-8.6,12.7l3.6,6.2c7.4-3.3,12.2-10.1,12.2-19
	c0-4.9-1.4-9-4.3-12.5c-2.8-3.4-6.6-5.1-11.5-5.1c-4.1,0-7.4,1.7-9.4,3.5c-1,0.9-1.9,2.2-2.9,4.1c-0.9,1.8-1.6,3.4-2.1,4.6l-1.8,5.4
	c-1.5,4.7-2.9,8.2-4.2,10.2c-1.4,2-3.4,3-6,3c-5.2,0-8.6-4.2-8.6-11.8c0-7.8,3.4-12.8,10.2-15l-3.7-6.4
	C2282.2,2350.9,2277,2358.7,2277,2369.2z M2334,2428.4v-7.4h-56v31.6h7v-24.2H2334z M2278,2484v7.4h56v-7.4H2278z M2306.8,2542.6
	l27.2,24.7v-9.1l-25.3-23.4h25.3v-7.4h-56v7.4h26.9l-26.9,24.2v9.1L2306.8,2542.6z M2334,2606.2v-7.4h-56v31.6h7v-24.2H2334z
	 M2278,2708.2l56-20.9v-8.4l-56-20.9v7.9l12.6,4.6v25.2l-12.6,4.6V2708.2z M2325.1,2683.1l-27.6,10.1v-20.1L2325.1,2683.1z
	 M2278,2780.3l22.4-13.2c1.2,3.4,3.4,6.2,6.3,8.3c3,2.2,6.3,3.3,9.9,3.3c4.8,0,8.9-1.7,12.2-5.1c3.4-3.4,5.1-7.5,5.1-12.3v-22.4h-56
	v7.4h21.4v13.2L2278,2772V2780.3z M2327,2761.2c0,2.8-1,5.1-3,7c-2,2-4.5,3-7.4,3c-2.9,0-5.4-1-7.4-3c-2-1.9-3-4.2-3-7v-15h20.9
	V2761.2z"/>
<rect x="2480" class="st3" width="2480" height="2020"/>
<rect x="2480" class="st2" width="2480" height="2020"/>
<linearGradient id="SVGID_3_" gradientUnits="userSpaceOnUse" x1="3720" y1="1488" x2="3720" y2="9.094947e-13" gradientTransform="matrix(1 0 0 -1 0 3508)">
	<stop  offset="0" style="stop-color:#17AEFF"/>
	<stop  offset="1" style="stop-color:#008BDB"/>
</linearGradient>
<rect x="2480" y="2020" class="st4" width="2480" height="1488"/>
<g>
	<g>
		<defs>
			<rect id="SVGID_4_" x="2480.2" y="-0.3" width="2480" height="2020"/>
		</defs>
		<clipPath id="SVGID_5_">
			<use xlink:href="#SVGID_4_"  style="overflow:visible;"/>
		</clipPath>
		<g style="clip-path:url(#SVGID_5_);">
			
				<image style="overflow:visible;" width="2480" height="2020" xlink:href="7915A682.jpg"  transform="matrix(1 0 0 1 2480.2173 -0.3043)">
			</image>
		</g>
	</g>
</g>
<path class="st2" d="M2720,2230.4v-28.2h122.5v28.2h-42.9V2354h-37.2v-123.6H2720z M2958,2354h-99.7v-151.8h99.7v28.2h-62.5v34.3
	h56.1v26.2h-56.1v35h62.5V2354z M3076.2,2354H2981v-151.8h37.2v123.6h58.1V2354z M3193.2,2354h-99.7v-151.8h99.7v28.2h-62.5v34.3
	h56.1v26.2h-56.1v35h62.5V2354z M3276.5,2356.9c-22.3,0-39.1-6.4-50.4-19.1c-11.3-12.8-16.9-30.3-16.9-52.6v-13
	c0-22.3,5.6-39.9,16.9-52.8c11.3-12.9,28.1-19.4,50.4-19.4c18.5,0,33.1,4.6,44,13.6c11,9.1,17.4,21.5,19.1,37.2h-37
	c-3.2-14.7-11.6-22-25.1-22c-10.6,0-18.2,3.7-22.9,11c-4.6,7.2-6.8,18-6.8,32.3v13c0,14.4,2.3,25.2,7,32.3
	c4.8,7.2,13,10.8,24.4,10.8c8.1,0,14.7-2.5,19.8-7.5c5.3-5.1,8.2-12.5,8.8-22h-29.9v-25.1h64v80.3h-18.5l-3.5-18
	c-4.4,5.9-10.4,10.9-18,15C3294.6,2354.9,3286,2356.9,3276.5,2356.9z M3449.3,2354l-23.8-48.8h-18.9v48.8h-37.2v-151.8h49.3
	c23.2,0,40.4,4.5,51.7,13.4c11.3,8.9,16.9,21.7,16.9,38.3c0,21-9,35.5-27.1,43.6l29.9,56.5H3449.3z M3449.9,2253.9
	c0-15.4-9.1-23.1-27.3-23.1h-16.1v46h16.1C3440.8,2276.8,3449.9,2269.1,3449.9,2253.9z M3589.2,2202.2l51.9,151.8h-38.5l-10.6-35.6
	H3549l-10.3,35.6h-38.7l52.1-151.8H3589.2z M3556.2,2292.2h28.6l-14.3-48.6L3556.2,2292.2z M3767.1,2202.2h52.8V2354h-37.2v-98.3
	h-0.9l-26.6,98.3h-32.8l-26.4-98.3h-0.9v98.3h-37.2v-151.8h52.8l27.5,102.7h1.3L3767.1,2202.2z M3977.4,2354h-56.3v-151.8h56.3
	c10,0,18.7,1.2,26.2,3.7c7.5,2.4,13.1,5.1,16.9,8.4c3.8,3.2,6.8,7,9,11.4c2.3,4.2,3.7,7.9,4.2,10.8c0.6,2.9,0.9,5.8,0.9,8.6
	c0,2.5-0.3,4.9-0.9,7.3c-0.4,2.2-0.9,4-1.3,5.5c-0.4,1.3-1.3,3-2.6,5.1c-1.3,1.9-2.3,3.2-2.9,3.7c-0.4,0.6-1.6,1.8-3.5,3.7
	c-1.8,1.9-2.7,3-2.9,3.3c14.4,8.8,21.6,20.1,21.6,33.9c0,8.9-1.6,16.6-4.8,22.9c-3.2,6.2-7.9,10.9-14.1,14.3
	c-6.2,3.4-12.9,5.8-20.2,7.3C3995.6,2353.3,3987.1,2354,3977.4,2354z M3958.3,2289.8v36.1h22.7c8.8,0,15.2-1.5,19.4-4.4
	c4.1-2.9,6.2-7.6,6.2-13.9c0-11.9-8.5-17.8-25.5-17.8H3958.3z M3958.3,2230.8v34.1h19.4c14.7,0,22-5.6,22-16.9
	c0-5.3-1.9-9.5-5.7-12.5c-3.8-3.1-9.2-4.6-16.3-4.6H3958.3z M4076.9,2219.4c11.3-12.9,28.1-19.4,50.4-19.4
	c22.3,0,39.1,6.4,50.4,19.4c11.3,12.9,16.9,30.5,16.9,52.8v13c0,22.3-5.6,39.8-16.9,52.6c-11.3,12.8-28.1,19.1-50.4,19.1
	c-22.3,0-39.1-6.4-50.4-19.1c-11.3-12.8-16.9-30.3-16.9-52.6v-13C4060,2249.9,4065.6,2232.3,4076.9,2219.4z M4127.3,2228.4
	c-10.3,0-17.6,4-22,11.9c-4.4,7.8-6.6,19.6-6.6,35.4v7.3c0,30.5,9.5,45.8,28.6,45.8c18.9,0,28.4-15.2,28.4-45.8v-8.6
	c0-15.1-2.2-26.6-6.6-34.3C4144.7,2232.3,4137.4,2228.4,4127.3,2228.4z M4203.3,2230.4v-28.2h122.5v28.2h-42.9V2354h-37.2v-123.6
	H4203.3z M2863.9,2422.2L2812,2574h-37.2l-52.1-151.8h38.7l31.9,110.4l32.1-110.4H2863.9z M2919.3,2422.2V2574h-37.2v-151.8H2919.3z
	 M3009.2,2574h-56.5v-151.8h56.5c22.3,0,39.1,6.4,50.4,19.1c11.3,12.8,16.9,30.2,16.9,52.4v9.2c0,22.2-5.6,39.5-16.9,52.1
	C3048.3,2567.7,3031.5,2574,3009.2,2574z M3037.6,2493.7c0-13.8-2.2-24.3-6.6-31.7c-4.2-7.5-11.5-11.2-21.8-11.2h-19.6v95h19.6
	c10.3,0,17.5-3.7,21.8-11c4.4-7.5,6.6-18.1,6.6-31.9V2493.7z M3201.8,2574h-99.7v-151.8h99.7v28.2h-62.5v34.3h56.1v26.2h-56.1v35
	h62.5V2574z M3234.7,2439.4c11.3-12.9,28.1-19.4,50.4-19.4c22.3,0,39.1,6.4,50.4,19.4c11.3,12.9,16.9,30.5,16.9,52.8v13
	c0,22.3-5.6,39.8-16.9,52.6s-28.1,19.1-50.4,19.1c-22.3,0-39.1-6.4-50.4-19.1s-16.9-30.3-16.9-52.6v-13
	C3217.8,2469.9,3223.4,2452.3,3234.7,2439.4z M3285.1,2448.4c-10.3,0-17.6,4-22,11.9c-4.4,7.8-6.6,19.6-6.6,35.4v7.3
	c0,30.5,9.5,45.8,28.6,45.8c18.9,0,28.4-15.2,28.4-45.8v-8.6c0-15.1-2.2-26.6-6.6-34.3C3302.5,2452.3,3295.2,2448.4,3285.1,2448.4z
	 M3505.3,2574h-56.5v-151.8h56.5c22.3,0,39.1,6.4,50.4,19.1c11.3,12.8,16.9,30.2,16.9,52.4v9.2c0,22.2-5.7,39.5-16.9,52.1
	C3544.4,2567.7,3527.6,2574,3505.3,2574z M3533.7,2493.7c0-13.8-2.2-24.3-6.6-31.7c-4.3-7.5-11.5-11.2-21.8-11.2h-19.6v95h19.6
	c10.3,0,17.5-3.7,21.8-11c4.4-7.5,6.6-18.1,6.6-31.9V2493.7z M3673,2422.2l51.9,151.8h-38.5l-10.6-35.6h-43.1l-10.3,35.6h-38.7
	l52.1-151.8H3673z M3640,2512.2h28.6l-14.3-48.6L3640,2512.2z M3821.6,2574l-23.8-48.8h-18.9v48.8h-37.2v-151.8h49.3
	c23.2,0,40.4,4.5,51.7,13.4c11.3,8.9,16.9,21.7,16.9,38.3c0,21-9,35.5-27.1,43.6l29.9,56.5H3821.6z M3822.2,2473.9
	c0-15.4-9.1-23.1-27.3-23.1h-16.1v46h16.1C3813.2,2496.8,3822.2,2489.1,3822.2,2473.9z M3898.2,2434.3c11-9.5,25.4-14.3,43.1-14.3
	c17.8,0,32.1,4.2,42.9,12.5c11,8.4,17.5,20.2,19.6,35.4h-35.6c-1.5-6.4-4.1-11.5-7.9-15.2c-3.8-3.8-10.1-5.7-18.9-5.7
	c-7.6,0-13.4,1.8-17.4,5.5c-4,3.5-5.9,7.3-5.9,11.4c0,5,2.1,9,6.4,12.1c4.4,2.9,9.8,4.9,16.3,5.9c6.6,0.9,13.6,2.3,21.1,4.2
	c7.6,1.8,14.7,3.8,21.1,6.2c6.6,2.4,12,6.5,16.3,12.5c4.4,5.9,6.6,13.4,6.6,22.4c0,14.5-6.1,26.4-18.3,35.6
	c-12.2,9.2-27.6,13.9-46.2,13.9c-7.6,0-14.7-0.8-21.3-2.4c-6.6-1.5-13.1-4-19.4-7.5c-6.2-3.5-11.4-8.6-15.6-15.2
	c-4.1-6.6-6.8-14.4-8.1-23.5h36.1c0.9,7.5,3.9,13.1,9,16.7c5.3,3.5,11.7,5.3,19.4,5.3c8.2,0,14.7-1.7,19.6-5.1
	c5-3.4,7.5-7.6,7.5-12.8c0-4-1.6-7.2-4.8-9.7c-3.1-2.5-7.2-4.3-12.3-5.5c-5.1-1.3-10.8-2.5-16.9-3.5c-6-1.2-12.1-2.6-18.3-4.4
	c-6.2-1.9-11.8-4.3-16.9-7.3c-5.1-3.1-9.3-7.6-12.5-13.4c-3.1-5.9-4.6-12.9-4.6-21.1C3881.9,2454.9,3887.3,2443.8,3898.2,2434.3z
	 M4122.5,2574h-95.3v-151.8h37.2v123.6h58.1V2574z M4177,2422.2V2574h-37.2v-151.8H4177z M4245.3,2422.2v56.3h1.1l40.3-56.3h38.9
	l-48.6,62.7l56.1,89.1h-39.4l-37.6-62l-10.8,14.1v48h-37.2v-151.8H4245.3z"/>
<path class="st5" d="M2771,2739.4c4.7-6.6,7-15.4,7-26.4s-2.3-19.8-7-26.3c-4.6-6.6-11.1-9.9-19.5-9.9s-14.9,3.3-19.6,9.9
	c-4.6,6.5-6.9,15.3-6.9,26.3s2.3,19.8,6.9,26.4c4.7,6.5,11.2,9.8,19.6,9.8S2766.4,2745.9,2771,2739.4z M2737.1,2734.7
	c-3.4-5.1-5.1-12.4-5.1-21.7s1.7-16.6,5.1-21.7c3.5-5.1,8.3-7.7,14.4-7.7s10.9,2.6,14.3,7.7c3.5,5.1,5.2,12.4,5.2,21.7
	s-1.7,16.6-5.2,21.7c-3.4,5.1-8.2,7.7-14.3,7.7S2740.6,2739.8,2737.1,2734.7z M2858,2707.8c-4.6-7.3-11.3-11-20.2-11
	c-7.1,0-13.2,2.5-18.3,7.6c-5,5.1-7.5,11.3-7.5,18.6s2.5,13.5,7.5,18.6c5.1,5.1,11.2,7.6,18.3,7.6c8.9,0,15.6-3.7,20.2-11v9.8h6.6
	v-70h-6.6V2707.8z M2824.3,2737.1c-3.8-3.9-5.7-8.6-5.7-14.1s1.9-10.2,5.7-14c3.8-3.9,8.5-5.8,14-5.8s10.2,1.9,14,5.8
	c3.8,3.8,5.7,8.5,5.7,14s-1.9,10.2-5.7,14.1c-3.8,3.8-8.5,5.7-14,5.7S2828.1,2740.9,2824.3,2737.1z M2921.6,2707.8
	c-4.6-7.3-11.3-11-20.2-11c-7.1,0-13.2,2.5-18.3,7.6c-5,5.1-7.5,11.3-7.5,18.6s2.5,13.5,7.5,18.6c5.1,5.1,11.2,7.6,18.3,7.6
	c8.9,0,15.6-3.7,20.2-11v9.8h6.6v-50h-6.6V2707.8z M2887.9,2737.1c-3.8-3.9-5.7-8.6-5.7-14.1s1.9-10.2,5.7-14
	c3.8-3.9,8.5-5.8,14-5.8s10.2,1.9,14,5.8c3.8,3.8,5.7,8.5,5.7,14s-1.9,10.2-5.7,14.1c-3.8,3.8-8.5,5.7-14,5.7
	S2891.7,2740.9,2887.9,2737.1z M2965.5,2696.8c-7.5,0-13.1,3-16.8,9v-7.8h-6.6v50h6.6v-26.2c0-12.7,6.6-18.6,16.2-18.6
	c8.7,0,13.6,5.2,13.6,14.1v30.7h6.6v-30.7C2985.1,2704.8,2977.6,2696.8,2965.5,2696.8z M3023.9,2678v70h7v-26h18
	c6.3,0,11.5-2.1,15.7-6.3c4.2-4.2,6.3-9.4,6.3-15.7s-2.1-11.5-6.3-15.7c-4.2-4.2-9.4-6.3-15.7-6.3H3023.9z M3030.9,2715.4v-30.8h18
	c4.3,0,7.9,1.5,10.7,4.4c2.9,2.9,4.3,6.5,4.3,11s-1.4,8.2-4.3,11.1c-2.8,2.9-6.4,4.3-10.7,4.3H3030.9z M3133.9,2748l-17.1-28.9
	c4.4-1.3,8-3.7,10.8-7.4c2.9-3.7,4.3-8,4.3-12.7c0-5.8-2.1-10.7-6.2-14.8c-4.1-4.1-9-6.2-14.8-6.2h-28v70h7v-28h19.6l16.4,28H3133.9
	z M3110.9,2684.6c3.9,0,7.2,1.4,9.9,4.2s4.1,6.2,4.1,10.2c0,3.9-1.4,7.3-4.1,10.2c-2.7,2.8-6,4.2-9.9,4.2h-21v-28.8H3110.9z
	 M3201.8,2738.7c7-7.1,10.5-15.6,10.5-25.7s-3.5-18.6-10.5-25.6c-7-7.1-15.6-10.6-25.7-10.6c-10.1,0-18.7,3.5-25.7,10.6
	c-7,7-10.5,15.5-10.5,25.6s3.5,18.6,10.5,25.7c7,7,15.6,10.5,25.7,10.5C3186.2,2749.2,3194.8,2745.7,3201.8,2738.7z M3155.3,2733.9
	c-5.6-5.7-8.4-12.7-8.4-20.9s2.8-15.1,8.4-20.8c5.6-5.7,12.5-8.6,20.8-8.6c8.3,0,15.2,2.9,20.8,8.6c5.6,5.7,8.4,12.6,8.4,20.8
	s-2.8,15.2-8.4,20.9c-5.6,5.7-12.5,8.5-20.8,8.5C3167.8,2742.4,3160.9,2739.6,3155.3,2733.9z M3266.3,2707.8
	c-4.6-7.3-11.3-11-20.2-11c-7.1,0-13.2,2.5-18.3,7.6c-5,5.1-7.5,11.3-7.5,18.6s2.5,13.5,7.5,18.6c5.1,5.1,11.2,7.6,18.3,7.6
	c8.9,0,15.6-3.7,20.2-11v7.8c0,10.3-7,16.8-18.5,16.8c-8.9,0-14.9-3-17.9-9.1l-5.8,3.3c4.1,8.1,12,12.2,23.7,12.2
	c6.9,0,12.8-2.1,17.7-6.2s7.4-9.8,7.4-17v-48h-6.6V2707.8z M3232.6,2737.1c-3.8-3.9-5.7-8.6-5.7-14.1s1.9-10.2,5.7-14
	c3.8-3.9,8.5-5.8,14-5.8s10.2,1.9,14,5.8c3.8,3.8,5.7,8.5,5.7,14s-1.9,10.2-5.7,14.1c-3.8,3.8-8.5,5.7-14,5.7
	S3236.4,2740.9,3232.6,2737.1z M3329.9,2707.8c-4.6-7.3-11.3-11-20.2-11c-7.1,0-13.2,2.5-18.3,7.6c-5,5.1-7.5,11.3-7.5,18.6
	s2.5,13.5,7.5,18.6c5.1,5.1,11.2,7.6,18.3,7.6c8.9,0,15.6-3.7,20.2-11v9.8h6.6v-50h-6.6V2707.8z M3296.2,2737.1
	c-3.8-3.9-5.7-8.6-5.7-14.1s1.9-10.2,5.7-14c3.8-3.9,8.5-5.8,14-5.8s10.2,1.9,14,5.8c3.8,3.8,5.7,8.5,5.7,14s-1.9,10.2-5.7,14.1
	c-3.8,3.8-8.5,5.7-14,5.7S3300,2740.9,3296.2,2737.1z M3373.7,2749.2c9.7,0,18.3-5,22.4-13l-5.5-3.2c-3.3,6-9.4,9.8-16.9,9.8
	c-5.5,0-10.2-1.9-14-5.7c-3.8-3.9-5.7-8.6-5.7-14.1s1.9-10.2,5.7-14c3.8-3.9,8.5-5.8,14-5.8c7.5,0,13.8,3.8,16.5,9.8l5.4-3.1
	c-3.6-8-12-13.1-21.9-13.1c-7.5,0-13.8,2.5-18.8,7.6c-5,5-7.5,11.2-7.5,18.6s2.5,13.6,7.5,18.7
	C3359.9,2746.7,3366.2,2749.2,3373.7,2749.2z M3429,2696.8c-7.5,0-13.1,3-16.8,9V2678h-6.6v70h6.6v-26.2c0-12.7,6.6-18.6,16.2-18.6
	c8.7,0,13.6,5.2,13.6,14.1v30.7h6.6v-30.7C3448.6,2704.8,3441.1,2696.8,3429,2696.8z M3504.4,2707.8c-4.6-7.3-11.3-11-20.2-11
	c-7.1,0-13.2,2.5-18.3,7.6c-5,5.1-7.5,11.3-7.5,18.6s2.5,13.5,7.5,18.6c5.1,5.1,11.2,7.6,18.3,7.6c8.9,0,15.6-3.7,20.2-11v9.8h6.6
	v-50h-6.6V2707.8z M3470.7,2737.1c-3.8-3.9-5.7-8.6-5.7-14.1s1.9-10.2,5.7-14c3.8-3.9,8.5-5.8,14-5.8s10.2,1.9,14,5.8
	c3.8,3.8,5.7,8.5,5.7,14s-1.9,10.2-5.7,14.1c-3.8,3.8-8.5,5.7-14,5.7S3474.5,2740.9,3470.7,2737.1z M3591.9,2741.7
	c5.1-5.1,7.7-11.3,7.7-18.7s-2.6-13.6-7.7-18.6c-5.1-5.1-11.3-7.6-18.6-7.6s-13.6,2.5-18.7,7.6c-5.1,5-7.6,11.2-7.6,18.6
	s2.5,13.6,7.6,18.7c5.1,5,11.4,7.5,18.7,7.5S3586.8,2746.7,3591.9,2741.7z M3559.2,2737.1c-3.8-3.9-5.7-8.6-5.7-14.1
	s1.9-10.2,5.7-14c3.8-3.9,8.5-5.8,14-5.8s10.2,1.9,14,5.8c3.8,3.8,5.7,8.5,5.7,14s-1.9,10.2-5.7,14.1c-3.8,3.8-8.5,5.7-14,5.7
	S3563.1,2740.9,3559.2,2737.1z M3610.6,2700.5l4-22.5h-6l-6,22.5H3610.6z M3634.2,2698h-6.6v50h6.6v-27.8c0-11.5,6.7-16.6,15.8-16.6
	v-6.4c-7.5,0-12.7,3-15.8,9.1V2698z M3699,2707.8c-4.6-7.3-11.3-11-20.2-11c-7.1,0-13.2,2.5-18.3,7.6c-5,5.1-7.5,11.3-7.5,18.6
	s2.5,13.5,7.5,18.6c5.1,5.1,11.2,7.6,18.3,7.6c8.9,0,15.6-3.7,20.2-11v7.8c0,10.3-7,16.8-18.5,16.8c-8.9,0-14.9-3-17.9-9.1l-5.8,3.3
	c4.1,8.1,12,12.2,23.7,12.2c6.9,0,12.8-2.1,17.7-6.2c4.9-4.1,7.4-9.8,7.4-17v-48h-6.6V2707.8z M3665.3,2737.1
	c-3.8-3.9-5.7-8.6-5.7-14.1s1.9-10.2,5.7-14c3.8-3.9,8.5-5.8,14-5.8s10.2,1.9,14,5.8c3.8,3.8,5.7,8.5,5.7,14s-1.9,10.2-5.7,14.1
	c-3.8,3.8-8.5,5.7-14,5.7S3669.1,2740.9,3665.3,2737.1z M3762.6,2707.8c-4.6-7.3-11.3-11-20.2-11c-7.1,0-13.2,2.5-18.3,7.6
	c-5,5.1-7.5,11.3-7.5,18.6s2.5,13.5,7.5,18.6c5.1,5.1,11.2,7.6,18.3,7.6c8.9,0,15.6-3.7,20.2-11v9.8h6.6v-50h-6.6V2707.8z
	 M3728.9,2737.1c-3.8-3.9-5.7-8.6-5.7-14.1s1.9-10.2,5.7-14c3.8-3.9,8.5-5.8,14-5.8s10.2,1.9,14,5.8c3.8,3.8,5.7,8.5,5.7,14
	s-1.9,10.2-5.7,14.1c-3.8,3.8-8.5,5.7-14,5.7S3732.7,2740.9,3728.9,2737.1z M3806.6,2696.8c-7.5,0-13.1,3-16.8,9v-7.8h-6.6v50h6.6
	v-26.2c0-12.7,6.6-18.6,16.2-18.6c8.7,0,13.6,5.2,13.6,14.1v30.7h6.6v-30.7C3826.1,2704.8,3818.6,2696.8,3806.6,2696.8z
	 M3845.6,2686c1.9-1.9,1.9-4.9,0-6.8c-1.9-1.9-4.9-1.9-6.8,0c-1.9,1.9-1.9,4.9,0,6.8C3840.7,2687.9,3843.7,2687.9,3845.6,2686z
	 M3845.5,2748v-50h-6.6v50H3845.5z M3882.9,2696.8c-7.5,0-13.1,3-16.8,9v-7.8h-6.6v50h6.6v-26.2c0-12.7,6.6-18.6,16.2-18.6
	c8.7,0,13.6,5.2,13.6,14.1v30.7h6.6v-30.7C3902.5,2704.8,3895,2696.8,3882.9,2696.8z M3958.3,2707.8c-4.6-7.3-11.3-11-20.2-11
	c-7.1,0-13.2,2.5-18.3,7.6c-5,5.1-7.5,11.3-7.5,18.6s2.5,13.5,7.5,18.6c5.1,5.1,11.2,7.6,18.3,7.6c8.9,0,15.6-3.7,20.2-11v7.8
	c0,10.3-7,16.8-18.5,16.8c-8.9,0-14.9-3-17.9-9.1l-5.8,3.3c4.1,8.1,12,12.2,23.7,12.2c6.9,0,12.8-2.1,17.7-6.2s7.4-9.8,7.4-17v-48
	h-6.6V2707.8z M3924.6,2737.1c-3.8-3.9-5.7-8.6-5.7-14.1s1.9-10.2,5.7-14c3.8-3.9,8.5-5.8,14-5.8s10.2,1.9,14,5.8
	c3.8,3.8,5.7,8.5,5.7,14s-1.9,10.2-5.7,14.1c-3.8,3.8-8.5,5.7-14,5.7S3928.4,2740.9,3924.6,2737.1z"/>
<path class="st6" d="M2838,186v56h7.4v-20h12.9c5.2,0,9.4-1.8,12.9-5.2s5.2-7.8,5.2-12.8c0-5.1-1.8-9.4-5.2-12.8s-7.7-5.2-12.9-5.2
	H2838z M2845.4,215V193h12.9c6.2,0,10.7,4.6,10.7,11c0,3.1-1,5.8-3,7.9c-2,2.1-4.6,3.1-7.7,3.1H2845.4z M2950.6,242l-13.2-22.4
	c3.4-1.2,6.2-3.4,8.3-6.3c2.2-3,3.3-6.3,3.3-9.9c0-4.8-1.7-8.9-5.1-12.2c-3.4-3.4-7.5-5.1-12.3-5.1h-22.4v56h7.4v-21.4h13.2
	l12.6,21.4H2950.6z M2931.6,193c2.8,0,5.1,1,7,3c2,2,3,4.5,3,7.4s-1,5.4-3,7.4c-1.9,2-4.2,3-7,3h-15V193H2931.6z M2978.9,214
	c0,8.1,2.8,14.9,8.4,20.6c5.6,5.7,12.5,8.5,20.6,8.5c8.1,0,15-2.8,20.6-8.5c5.7-5.7,8.5-12.5,8.5-20.6s-2.8-15-8.5-20.6
	c-5.6-5.7-12.5-8.5-20.6-8.5c-8.1,0-15,2.8-20.6,8.5C2981.7,199,2978.9,205.9,2978.9,214z M3029.4,214c0,6.2-2.1,11.3-6.2,15.5
	c-4.1,4.2-9.2,6.2-15.4,6.2c-6.2,0-11.3-2.1-15.4-6.2c-4.1-4.2-6.2-9.4-6.2-15.5s2.1-11.4,6.2-15.5c4.2-4.2,9.3-6.3,15.4-6.3
	c6.2,0,11.3,2.1,15.4,6.3C3027.4,202.6,3029.4,207.8,3029.4,214z M3102.1,186h-32.2v56h7.4v-23.8h23.8v-7h-23.8V193h24.8V186z
	 M3142.5,217.2h23.6v-7h-23.6V193h25.6v-7h-33v56h33.4v-7h-26V217.2z M3219.6,243c5.8,0,10.4-1.4,14-4.3c3.6-3,5.4-6.9,5.4-11.8
	c0-3.5-0.8-6.4-2.8-8.4c-1.4-1.6-2.1-2.5-4.3-3.7c-2.2-1.2-2.8-1.6-5.6-2.6c-1.4-0.6-2.3-0.9-3-1.1l-3.3-1c-4.3-1.4-7.4-2.7-9.1-4
	c-1.8-1.3-2.6-3.1-2.6-5.6c0-5.1,4.1-8.3,10.2-8.3c6.1,0,10.3,2.9,12.7,8.6l6.2-3.6c-3.3-7.4-10.1-12.2-19-12.2
	c-4.9,0-9,1.4-12.5,4.3c-3.4,2.8-5.1,6.6-5.1,11.5c0,4.1,1.7,7.4,3.5,9.4c0.9,1,2.2,1.9,4.1,2.9c1.8,0.9,3.4,1.6,4.6,2.1l5.4,1.8
	c4.7,1.5,8.2,2.9,10.2,4.2s3,3.4,3,6c0,5.2-4.2,8.6-11.8,8.6c-7.8,0-12.8-3.4-15-10.2l-6.4,3.7C3201.4,237.8,3209.1,243,3219.6,243z
	 M3287.9,243c5.8,0,10.4-1.4,14-4.3c3.6-3,5.4-6.9,5.4-11.8c0-3.5-0.8-6.4-2.8-8.4c-1.4-1.6-2.1-2.5-4.3-3.7
	c-2.2-1.2-2.8-1.6-5.6-2.6c-1.4-0.6-2.3-0.9-3-1.1l-3.3-1c-4.3-1.4-7.4-2.7-9.1-4s-2.6-3.1-2.6-5.6c0-5.1,4.1-8.3,10.2-8.3
	c6.1,0,10.3,2.9,12.7,8.6l6.2-3.6c-3.3-7.4-10.1-12.2-19-12.2c-4.9,0-9,1.4-12.5,4.3c-3.4,2.8-5.1,6.6-5.1,11.5
	c0,4.1,1.7,7.4,3.5,9.4c0.9,1,2.2,1.9,4.1,2.9c1.8,0.9,3.4,1.6,4.6,2.1l5.4,1.8c4.7,1.5,8.2,2.9,10.2,4.2s3,3.4,3,6
	c0,5.2-4.2,8.6-11.8,8.6c-7.8,0-12.8-3.4-15-10.2l-6.4,3.7C3269.6,237.8,3277.4,243,3287.9,243z M3339.7,242h7.4v-56h-7.4V242z
	 M3380.2,214c0,8.1,2.8,14.9,8.4,20.6c5.6,5.7,12.5,8.5,20.6,8.5c8.1,0,15-2.8,20.6-8.5c5.7-5.7,8.5-12.5,8.5-20.6s-2.8-15-8.5-20.6
	c-5.6-5.7-12.5-8.5-20.6-8.5c-8.1,0-15,2.8-20.6,8.5C3383,199,3380.2,205.9,3380.2,214z M3430.7,214c0,6.2-2.1,11.3-6.2,15.5
	c-4.1,4.2-9.2,6.2-15.4,6.2c-6.2,0-11.3-2.1-15.4-6.2c-4.1-4.2-6.2-9.4-6.2-15.5s2.1-11.4,6.2-15.5c4.2-4.2,9.3-6.3,15.4-6.3
	c6.2,0,11.3,2.1,15.4,6.3C3428.6,202.6,3430.7,207.8,3430.7,214z M3505.9,227.8l-28.8-41.8h-6v56h7.4v-41.8l28.8,41.8h6v-56h-7.4
	V227.8z M3594.1,242l-20.9-56h-8.4l-20.9,56h7.9l4.6-12.6h25.2l4.6,12.6H3594.1z M3569,194.9l10.1,27.6H3559L3569,194.9z
	 M3632.2,186h-7.4v56h31.6v-7h-24.2V186z M3754.8,242l20.1-56h-8.1l-16.2,46.7l-16.2-46.7h-8l20,56H3754.8z M3805.5,242h7.4v-56
	h-7.4V242z M3848.9,186v56h21.8c7.6,0,13.9-2.7,19-8.1c5-5.4,7.6-12.1,7.6-19.9s-2.6-14.5-7.6-19.8c-5-5.4-11.4-8.2-19-8.2H3848.9z
	 M3856.4,235V193h14.4c5.7,0,10.4,2,14,6s5.4,9,5.4,15s-1.8,11-5.4,15s-8.3,6-14,6H3856.4z M3937.8,217.2h23.6v-7h-23.6V193h25.6v-7
	h-33v56h33.4v-7h-26V217.2z M3993.4,214c0,8.1,2.8,14.9,8.4,20.6c5.6,5.7,12.5,8.5,20.6,8.5c8.1,0,15-2.8,20.6-8.5
	c5.7-5.7,8.5-12.5,8.5-20.6s-2.8-15-8.5-20.6c-5.6-5.7-12.5-8.5-20.6-8.5c-8.1,0-15,2.8-20.6,8.5
	C3996.2,199,3993.4,205.9,3993.4,214z M4044,214c0,6.2-2.1,11.3-6.2,15.5c-4.1,4.2-9.2,6.2-15.4,6.2c-6.2,0-11.3-2.1-15.4-6.2
	c-4.1-4.2-6.2-9.4-6.2-15.5s2.1-11.4,6.2-15.5c4.2-4.2,9.3-6.3,15.4-6.3c6.2,0,11.3,2.1,15.4,6.3C4041.9,202.6,4044,207.8,4044,214z
	 M4128.4,186v56h21.8c7.6,0,13.9-2.7,19-8.1c5-5.4,7.6-12.1,7.6-19.9s-2.6-14.5-7.6-19.8c-5-5.4-11.4-8.2-19-8.2H4128.4z
	 M4135.8,235V193h14.4c5.7,0,10.4,2,14,6s5.4,9,5.4,15s-1.8,11-5.4,15s-8.3,6-14,6H4135.8z M4252.6,242l-20.9-56h-8.4l-20.9,56h7.9
	l4.6-12.6h25.2l4.6,12.6H4252.6z M4227.4,194.9l10.1,27.6h-20.1L4227.4,194.9z M4324.6,242l-13.2-22.4c3.4-1.2,6.2-3.4,8.3-6.3
	c2.2-3,3.3-6.3,3.3-9.9c0-4.8-1.7-8.9-5.1-12.2c-3.4-3.4-7.5-5.1-12.3-5.1h-22.4v56h7.4v-21.4h13.2l12.6,21.4H4324.6z M4305.6,193
	c2.8,0,5.1,1,7,3c2,2,3,4.5,3,7.4s-1,5.4-3,7.4c-1.9,2-4.2,3-7,3h-15V193H4305.6z M4373.3,243c5.8,0,10.4-1.4,14-4.3
	c3.6-3,5.4-6.9,5.4-11.8c0-3.5-0.8-6.4-2.8-8.4c-1.4-1.6-2.1-2.5-4.3-3.7c-2.2-1.2-2.8-1.6-5.6-2.6c-1.4-0.6-2.3-0.9-3-1.1l-3.3-1
	c-4.3-1.4-7.4-2.7-9.1-4c-1.8-1.3-2.6-3.1-2.6-5.6c0-5.1,4.1-8.3,10.2-8.3s10.3,2.9,12.7,8.6l6.2-3.6c-3.3-7.4-10.1-12.2-19-12.2
	c-4.9,0-9,1.4-12.5,4.3c-3.4,2.8-5.1,6.6-5.1,11.5c0,4.1,1.7,7.4,3.5,9.4c0.9,1,2.2,1.9,4.1,2.9c1.8,0.9,3.4,1.6,4.6,2.1l5.4,1.8
	c4.7,1.5,8.2,2.9,10.2,4.2s3,3.4,3,6c0,5.2-4.2,8.6-11.8,8.6c-7.8,0-12.8-3.4-15-10.2l-6.4,3.7C4355,237.8,4362.8,243,4373.3,243z
	 M4432.5,186h-7.4v56h31.6v-7h-24.2V186z M4534.5,242l-20.9-56h-8.4l-20.9,56h7.9l4.6-12.6h25.2l4.6,12.6H4534.5z M4509.4,194.9
	l10.1,27.6h-20.1L4509.4,194.9z M4606.5,242l-13.2-22.4c3.4-1.2,6.2-3.4,8.3-6.3c2.2-3,3.3-6.3,3.3-9.9c0-4.8-1.7-8.9-5.1-12.2
	c-3.4-3.4-7.5-5.1-12.3-5.1h-22.4v56h7.4v-21.4h13.2l12.6,21.4H4606.5z M4587.5,193c2.8,0,5.1,1,7,3c2,2,3,4.5,3,7.4s-1,5.4-3,7.4
	c-1.9,2-4.2,3-7,3h-15V193H4587.5z"/>
<path class="st2" d="M2748.4,3333h-5.3l-15-14.5v14.5h-4v-42h4v25.3l14.3-13.3h5.4l-15.5,14.4L2748.4,3333z M2757.9,3295.8
	c-0.6,0.6-1.2,0.8-2,0.8c-0.8,0-1.5-0.3-2-0.8s-0.8-1.2-0.8-2s0.3-1.5,0.8-2s1.2-0.8,2-0.8c0.8,0,1.5,0.3,2,0.8
	c0.6,0.6,0.8,1.2,0.8,2S2758.4,3295.2,2757.9,3295.8z M2753.9,3333v-30h4v30H2753.9z M2780.2,3302.3c3.6,0,6.5,1.1,8.6,3.4
	c2.1,2.2,3.2,5.2,3.2,8.9v18.4h-4v-18.4c0-2.7-0.7-4.8-2.2-6.2c-1.4-1.5-3.4-2.2-6-2.2c-2.9,0-5.2,0.9-7,2.8
	c-1.8,1.8-2.7,4.6-2.7,8.4v15.7h-4v-30h4v4.7C2772.4,3304.1,2775.8,3302.3,2780.2,3302.3z M2825.5,3303h4v28.8
	c0,4.3-1.5,7.7-4.4,10.2s-6.5,3.7-10.6,3.7c-7,0-11.8-2.4-14.2-7.3l3.5-2c1.8,3.6,5.4,5.5,10.7,5.5c3.4,0,6.1-0.9,8.1-2.8
	c2-1.8,3-4.2,3-7.3v-4.7c-2.8,4.4-6.8,6.6-12.1,6.6c-4.3,0-7.9-1.5-11-4.6c-3-3-4.5-6.8-4.5-11.2s1.5-8.1,4.5-11.2
	c3-3,6.7-4.6,11-4.6c5.3,0,9.4,2.2,12.1,6.6V3303z M2805.2,3326.5c2.3,2.3,5.1,3.4,8.4,3.4c3.3,0,6.1-1.1,8.4-3.4
	c2.3-2.3,3.4-5.1,3.4-8.5s-1.1-6.1-3.4-8.4c-2.3-2.3-5.1-3.5-8.4-3.5c-3.3,0-6.1,1.2-8.4,3.5c-2.3,2.3-3.4,5.1-3.4,8.4
	S2803,3324.1,2805.2,3326.5z M2853.9,3302.3c4.3,0,7.9,1.5,10.9,4.6c3,3,4.6,6.8,4.6,11.2s-1.5,8.1-4.6,11.2c-3,3-6.6,4.6-10.9,4.6
	c-5.3,0-9.4-2.2-12.1-6.6v5.9h-4v-42h4v17.9C2844.5,3304.5,2848.6,3302.3,2853.9,3302.3z M2845.2,3326.5c2.3,2.3,5.1,3.4,8.4,3.4
	c3.3,0,6.1-1.1,8.4-3.4c2.3-2.3,3.4-5.1,3.4-8.5s-1.1-6.1-3.4-8.4c-2.3-2.3-5.1-3.5-8.4-3.5c-3.3,0-6.1,1.2-8.4,3.5
	c-2.3,2.3-3.4,5.1-3.4,8.4S2842.9,3324.1,2845.2,3326.5z M2901.1,3329.2c-3,3-6.8,4.5-11.2,4.5c-4.4,0-8.1-1.5-11.2-4.5
	c-3-3-4.6-6.8-4.6-11.2s1.5-8.2,4.6-11.2c3.1-3,6.8-4.6,11.2-4.6c4.4,0,8.1,1.5,11.2,4.6c3.1,3,4.6,6.7,4.6,11.2
	S2904.2,3326.2,2901.1,3329.2z M2881.5,3326.5c2.3,2.3,5.1,3.4,8.4,3.4c3.3,0,6.1-1.1,8.4-3.4c2.3-2.3,3.4-5.1,3.4-8.5
	s-1.1-6.1-3.4-8.4c-2.3-2.3-5.1-3.5-8.4-3.5c-3.3,0-6.1,1.2-8.4,3.5c-2.3,2.3-3.4,5.1-3.4,8.4S2879.3,3324.1,2881.5,3326.5z
	 M2937.5,3329.2c-3,3-6.8,4.5-11.2,4.5c-4.4,0-8.1-1.5-11.2-4.5c-3-3-4.6-6.8-4.6-11.2s1.5-8.2,4.6-11.2c3.1-3,6.8-4.6,11.2-4.6
	c4.4,0,8.1,1.5,11.2,4.6c3.1,3,4.6,6.7,4.6,11.2S2940.6,3326.2,2937.5,3329.2z M2917.9,3326.5c2.3,2.3,5.1,3.4,8.4,3.4
	c3.3,0,6.1-1.1,8.4-3.4c2.3-2.3,3.4-5.1,3.4-8.5s-1.1-6.1-3.4-8.4c-2.3-2.3-5.1-3.5-8.4-3.5c-3.3,0-6.1,1.2-8.4,3.5
	c-2.3,2.3-3.4,5.1-3.4,8.4S2915.6,3324.1,2917.9,3326.5z M2973,3333h-5.3l-15-14.5v14.5h-4v-42h4v25.3l14.3-13.3h5.4l-15.5,14.4
	L2973,3333z M2983.4,3332.6c-0.6,0.6-1.4,1-2.3,1c-0.9,0-1.7-0.3-2.3-1c-0.6-0.6-1-1.4-1-2.3c0-0.9,0.3-1.7,1-2.3
	c0.6-0.6,1.4-1,2.3-1c0.9,0,1.7,0.3,2.3,1c0.6,0.6,1,1.4,1,2.3C2984.4,3331.2,2984.1,3332,2983.4,3332.6z M3013.3,3303h4v30h-4v-4.7
	c-2.2,3.6-5.6,5.4-10.1,5.4c-3.6,0-6.5-1.1-8.6-3.3c-2.1-2.2-3.1-5.2-3.1-9V3303h4v18.4c0,2.7,0.7,4.8,2.1,6.2
	c1.4,1.5,3.5,2.2,6.1,2.2c2.9,0,5.2-0.9,7-2.7c1.8-1.8,2.7-4.7,2.7-8.5V3303z M3030,3329.2h17.3v3.8h-22.8v-2.6l16.7-23.5h-16.1
	v-3.8h21.6v2.6L3030,3329.2z"/>
<path class="st2" d="M2785,2920.3c22.5,2.5,40,21.6,40,44.7v45h-90v-45c0-23.2,17.5-42.2,40-44.7V2905h10V2920.3z M2815,3000v-35
	c0-9.3-3.7-18.2-10.2-24.8c-6.6-6.6-15.5-10.2-24.8-10.2s-18.2,3.7-24.8,10.2c-6.6,6.6-10.2,15.5-10.2,24.8v35H2815z M2780,2990
	c-6.6,0-13-2.6-17.7-7.3c-4.7-4.7-7.3-11.1-7.3-17.7s2.6-13,7.3-17.7c4.7-4.7,11.1-7.3,17.7-7.3s13,2.6,17.7,7.3
	c4.7,4.7,7.3,11.1,7.3,17.7s-2.6,13-7.3,17.7C2793,2987.4,2786.6,2990,2780,2990L2780,2990z M2780,2980c4,0,7.8-1.6,10.6-4.4
	c2.8-2.8,4.4-6.6,4.4-10.6s-1.6-7.8-4.4-10.6c-2.8-2.8-6.6-4.4-10.6-4.4s-7.8,1.6-10.6,4.4c-2.8,2.8-4.4,6.6-4.4,10.6
	s1.6,7.8,4.4,10.6C2772.2,2978.4,2776,2980,2780,2980L2780,2980z M2780,2970c-1.3,0-2.6-0.5-3.5-1.5c-0.9-0.9-1.5-2.2-1.5-3.5
	s0.5-2.6,1.5-3.5c0.9-0.9,2.2-1.5,3.5-1.5s2.6,0.5,3.5,1.5c0.9,0.9,1.5,2.2,1.5,3.5s-0.5,2.6-1.5,3.5
	C2782.6,2969.5,2781.3,2970,2780,2970z"/>
<path class="st2" d="M2994.1,2938.8l-28.3,28.3c-0.5,0.5-0.9,1-1.1,1.6c-0.3,0.6-0.4,1.3-0.4,1.9c0,0.7,0.1,1.3,0.4,1.9
	c0.2,0.6,0.6,1.2,1.1,1.6s1,0.8,1.6,1.1c0.6,0.2,1.3,0.4,1.9,0.4c0.7,0,1.3-0.1,1.9-0.4c0.6-0.3,1.2-0.6,1.6-1.1l28.3-28.3
	c2.8-2.8,4.4-6.6,4.4-10.6s-1.6-7.8-4.4-10.6c-2.8-2.8-6.6-4.4-10.6-4.4c-4,0-7.8,1.6-10.6,4.4l-28.3,28.3c-2.4,2.3-4.3,5.1-5.6,8.1
	c-1.3,3.1-2,6.3-2,9.6c0,3.3,0.6,6.6,1.9,9.7c1.3,3.1,3.1,5.8,5.4,8.2s5.1,4.2,8.2,5.4c3.1,1.2,6.3,1.9,9.7,1.9c3.3,0,6.6-0.7,9.6-2
	c3-1.3,5.8-3.2,8.1-5.6l28.3-28.3l7.1,7.1l-28.3,28.3c-3.2,3.2-7.1,5.8-11.3,7.6c-4.2,1.8-8.8,2.7-13.4,2.7c-4.6,0-9.1-0.9-13.4-2.7
	c-4.2-1.8-8.1-4.3-11.4-7.6s-5.8-7.1-7.6-11.4s-2.7-8.8-2.7-13.4c0-4.6,0.9-9.1,2.7-13.4s4.3-8.1,7.6-11.4l28.3-28.3
	c4.7-4.6,11-7.1,17.6-7c6.6,0.1,12.8,2.7,17.5,7.3c4.6,4.6,7.3,10.9,7.3,17.5c0.1,6.5-2.5,12.9-7,17.6l-28.3,28.3
	c-1.4,1.4-3.1,2.5-4.9,3.2c-1.8,0.8-3.8,1.1-5.7,1.1c-2,0-3.9-0.4-5.7-1.1c-1.8-0.8-3.5-1.9-4.9-3.2c-1.4-1.4-2.5-3.1-3.2-4.9
	c-0.8-1.8-1.1-3.8-1.1-5.7c0-2,0.4-3.9,1.1-5.7c0.8-1.8,1.9-3.5,3.3-4.9l28.3-28.3L2994.1,2938.8z"/>
<path class="st2" d="M3185,2970h-10c-8.2,0-16.2,2.2-23.3,6.5c-7,4.2-12.8,10.3-16.6,17.6c-0.1-1.4-0.2-2.7-0.2-4.1
	c0-27.6,22.4-50,50-50v-27.5l52.5,42.5l-52.5,42.5V2970z M3175,2960h20v16.5l26.6-21.5l-26.6-21.5v16.5h-10
	c-5.8,0-11.4,1.2-16.7,3.6c-5.2,2.4-9.9,5.9-13.6,10.2C3161.2,2961.3,3168.1,2960,3175,2960z"/>
<path class="st2" d="M3380,3010c-27.6,0-50-22.4-50-50s22.4-50,50-50s50,22.4,50,50S3407.6,3010,3380,3010z M3355.1,2991.3
	c7.1,5.7,15.9,8.7,24.9,8.7c9.9,0,18.9-3.6,25.8-9.5c-3.2-3.3-7.1-6-11.4-7.8c-4.3-1.8-8.9-2.7-13.6-2.7c-4.8,0-9.6,1-14.1,2.9
	C3362.3,2984.9,3358.3,2987.7,3355.1,2991.3L3355.1,2991.3z M3348.1,2984.1c4.2-4.5,9.3-8,14.9-10.4c5.6-2.4,11.7-3.7,17.8-3.7
	c5.9,0,11.8,1.1,17.2,3.4s10.4,5.6,14.6,9.8c4.3-6,6.8-13.1,7.3-20.5c0.5-7.4-1.1-14.7-4.5-21.3c-3.4-6.5-8.6-12-15-15.8
	c-6.3-3.8-13.6-5.7-21-5.6c-7.4,0.1-14.6,2.3-20.8,6.2c-6.2,4-11.3,9.6-14.5,16.2c-3.2,6.6-4.6,14.1-3.9,21.4
	C3340.9,2971.2,3343.6,2978.2,3348.1,2984.1L3348.1,2984.1z M3380,2965c-5.3,0-10.4-2.1-14.1-5.9s-5.9-8.8-5.9-14.1
	s2.1-10.4,5.9-14.1s8.8-5.9,14.1-5.9s10.4,2.1,14.1,5.9s5.9,8.8,5.9,14.1s-2.1,10.4-5.9,14.1S3385.3,2965,3380,2965z M3380,2955
	c2.6,0,5.2-1.1,7.1-2.9c1.9-1.9,2.9-4.4,2.9-7.1s-1.1-5.2-2.9-7.1c-1.9-1.9-4.4-2.9-7.1-2.9s-5.2,1.1-7.1,2.9
	c-1.9,1.9-2.9,4.4-2.9,7.1s1.1,5.2,2.9,7.1C3374.8,2953.9,3377.4,2955,3380,2955z"/>
<path class="st2" d="M3535,2950h-5v-30c0-2.8,2.3-5,5-5h90.1c0.7,0,1.3,0.1,1.9,0.4c0.6,0.2,1.2,0.6,1.6,1.1s0.8,1,1.1,1.6
	c0.2,0.6,0.4,1.3,0.4,1.9v30h-5v50c0,0.6-0.1,1.3-0.4,1.9c-0.2,0.6-0.6,1.2-1.1,1.6s-1,0.8-1.6,1.1c-0.6,0.2-1.2,0.4-1.9,0.4H3540
	c-0.7,0-1.3-0.1-1.9-0.4c-0.6-0.3-1.2-0.6-1.6-1.1s-0.8-1-1.1-1.6c-0.2-0.6-0.4-1.2-0.4-1.9V2950z M3615,2950h-70v45h70V2950z
	 M3540,2925v15h80v-15H3540z M3565,2960h30v10h-30V2960z"/>
<path class="st2" d="M3780,2915c-4,0-7.8,1.6-10.6,4.4c-2.8,2.8-4.4,6.6-4.4,10.6v30c0,4,1.6,7.8,4.4,10.6c2.8,2.8,6.6,4.4,10.6,4.4
	s7.8-1.6,10.6-4.4c2.8-2.8,4.4-6.6,4.4-10.6v-30c0-4-1.6-7.8-4.4-10.6C3787.8,2916.6,3784,2915,3780,2915z M3780,2905
	c3.3,0,6.5,0.6,9.6,1.9c3,1.3,5.8,3.1,8.1,5.4c2.3,2.3,4.2,5.1,5.4,8.1c1.2,3,1.9,6.3,1.9,9.6v30c0,6.6-2.6,13-7.3,17.7
	c-4.7,4.7-11.1,7.3-17.7,7.3s-13-2.6-17.7-7.3c-4.7-4.7-7.3-11.1-7.3-17.7v-30c0-6.6,2.6-13,7.3-17.7
	C3767,2907.6,3773.4,2905,3780,2905L3780,2905z M3731,2969.8l9.8-2c1.8,9.1,6.7,17.2,13.9,23.1c7.2,5.9,16.1,9.1,25.4,9.1
	s18.2-3.2,25.4-9.1c7.2-5.9,12.1-14,13.9-23.1l9.8,2c-4.6,22.9-24.8,40.2-49,40.2S3735.5,2992.7,3731,2969.8z"/>
<path d="M4628,2212c106,0,192-86,192-192s-86-192-192-192s-192,86-192,192S4522,2212,4628,2212z"/>
<path d="M4592.8,2108c-6.2,0-5.2-2.4-7.3-8.3l-18.3-60.2L4708,1956"/>
<path d="M4592.8,2108c4.8,0,6.9-2.2,9.6-4.8l25.6-24.9l-31.9-19.3"/>
<path d="M4596.1,2059.1l77.4,57.2c8.8,4.9,15.2,2.4,17.4-8.2l31.5-148.4c3.2-12.9-4.9-18.8-13.4-14.9L4524,2016
	c-12.6,5.1-12.5,12.1-2.3,15.2l47.5,14.8l109.9-69.3c5.2-3.1,10-1.5,6.1,2"/>
<defs>
	<filter id="Adobe_OpacityMaskFilter" filterUnits="userSpaceOnUse" x="4424" y="1816" width="408" height="408">
		<feColorMatrix  type="matrix" values="1 0 0 0 0  0 1 0 0 0  0 0 1 0 0  0 0 0 1 0"/>
	</filter>
</defs>
<mask maskUnits="userSpaceOnUse" x="4424" y="1816" width="408" height="408" id="path-37-outside-1_1_">
	<rect x="4424" y="1816" class="st7" width="408" height="408"/>
	<path d="M4628,2212c106,0,192-86,192-192s-86-192-192-192s-192,86-192,192S4522,2212,4628,2212z"/>
	<path d="M4592.8,2108c-6.2,0-5.2-2.4-7.3-8.3l-18.3-60.2L4708,1956"/>
	<path d="M4592.8,2108c4.8,0,6.9-2.2,9.6-4.8l25.6-24.9l-31.9-19.3"/>
	<path d="M4596.1,2059.1l77.4,57.2c8.8,4.9,15.2,2.4,17.4-8.2l31.5-148.4c3.2-12.9-4.9-18.8-13.4-14.9L4524,2016
		c-12.6,5.1-12.5,12.1-2.3,15.2l47.5,14.8l109.9-69.3c5.2-3.1,10-1.5,6.1,2"/>
</mask>
<path class="st8" d="M4585.5,2099.7l-11.5,3.5l0.1,0.3l0.1,0.3L4585.5,2099.7z M4567.2,2039.5l-6.1-10.3l-8.1,4.8l2.7,9
	L4567.2,2039.5z M4602.4,2103.2l8.4,8.6l0,0L4602.4,2103.2z M4628,2078.3l8.4,8.6l11.1-10.8l-13.3-8L4628,2078.3z M4673.4,2116.2
	l-7.1,9.7l0.6,0.5l0.7,0.4L4673.4,2116.2z M4690.8,2108l-11.7-2.5v0l0,0L4690.8,2108z M4722.3,1959.6l-11.6-2.9l0,0.2l0,0.2
	L4722.3,1959.6z M4709,1944.7l4.3,11.2l0.3-0.1l0.3-0.2L4709,1944.7z M4524,2016l-4.3-11.2l-0.1,0l-0.1,0L4524,2016z M4521.7,2031.2
	l3.6-11.4l0,0l0,0L4521.7,2031.2z M4569.2,2046l-3.6,11.4l5.3,1.7l4.7-3L4569.2,2046z M4679,1976.7l-6.2-10.3l-0.1,0.1l-0.1,0.1
	L4679,1976.7z M4808,2020c0,99.4-80.6,180-180,180v24c112.7,0,204-91.3,204-204H4808z M4628,2200c-99.4,0-180-80.6-180-180h-24
	c0,112.7,91.3,204,204,204V2200z M4448,2020c0-99.4,80.6-180,180-180v-24c-112.7,0-204,91.3-204,204H4448z M4628,1840
	c99.4,0,180,80.6,180,180h24c0-112.7-91.3-204-204-204V1840z M4592.8,2096c-0.4,0-0.5,0-0.4,0c0.1,0,0.6,0.1,1.3,0.4
	c0.8,0.3,1.6,0.8,2.5,1.5c0.9,0.7,1.4,1.5,1.8,2.1c0.2,0.3,0.3,0.5,0.4,0.7c0.1,0.2,0.1,0.2,0.1,0.2c0,0,0,0-0.1-0.2
	c0-0.1-0.1-0.3-0.2-0.5c-0.2-0.9-0.7-2.6-1.4-4.6l-22.6,8.2c0.4,1,0.6,1.8,0.9,3c0.2,0.8,0.9,3.2,2.2,5.4c1.7,2.9,4.2,5.2,7.7,6.6
	c2.9,1.1,5.7,1.3,7.8,1.3V2096z M4597,2096.2l-18.3-60.2l-23,7l18.3,60.2L4597,2096.2z M4573.3,2049.9l140.8-83.5l-12.2-20.6
	l-140.8,83.5L4573.3,2049.9z M4592.8,2120c4.5,0,8.3-1.1,11.8-3.1c2.9-1.7,5.2-4.1,6.2-5.1l-16.7-17.2c-0.4,0.4-0.6,0.6-0.9,0.9
	c-0.3,0.2-0.4,0.4-0.6,0.6c-0.3,0.3-0.4,0.3-0.3,0.2c0.1-0.1,0.4-0.2,0.6-0.2c0.2-0.1,0.2,0,0,0V2120z M4610.8,2111.8l25.6-24.9
	l-16.7-17.2l-25.6,24.9L4610.8,2111.8z M4634.2,2068l-31.9-19.2l-12.4,20.6l31.9,19.2L4634.2,2068z M4588.9,2068.7l77.4,57.2
	l14.3-19.3l-77.4-57.2L4588.9,2068.7z M4667.6,2126.7c5.8,3.2,13.9,5.7,21.9,2.1c8.1-3.6,11.6-11.5,13-18.4l-23.5-4.9
	c-0.1,0.4-0.2,0.8-0.2,1.1c-0.1,0.3-0.2,0.6-0.2,0.8c-0.1,0.4-0.3,0.6-0.3,0.6c0,0,0.1-0.1,0.3-0.4c0.1-0.1,0.3-0.2,0.5-0.3
	c0.2-0.1,0.4-0.2,0.6-0.3c0.2-0.1,0.4-0.2,0.6-0.2c0.2-0.1,0.4-0.1,0.6-0.1c0.3,0,0.5,0,0.5,0c0,0-0.2,0-0.6-0.2
	c-0.4-0.1-0.9-0.4-1.5-0.7L4667.6,2126.7z M4702.6,2110.5l31.5-148.4l-23.5-5l-31.5,148.4L4702.6,2110.5z M4734,1962.5
	c2.2-8.9,1.2-18.7-5.6-25.3c-7-6.8-16.8-6.9-24.4-3.5l9.9,21.8c0.4-0.2,0.4,0-0.2-0.1c-0.6-0.1-1.4-0.4-2.1-1
	c-0.7-0.6-0.7-1.1-0.7-0.9c0.1,0.2,0.2,1.2-0.3,3.2L4734,1962.5z M4704.6,1933.4l-184.9,71.3l8.6,22.4l184.9-71.3L4704.6,1933.4z
	 M4519.5,2004.8c-3.9,1.6-7.6,3.6-10.6,6.2c-2.9,2.5-6,6.6-6.6,12.1c-0.6,5.9,2.1,10.7,5.4,13.8c3.1,2.9,6.9,4.6,10.5,5.7l7-23
	c-1.5-0.5-1.6-0.8-1-0.2c0.3,0.3,0.9,1,1.4,2.1c0.5,1.2,0.7,2.5,0.6,3.9c-0.3,2.7-1.7,3.8-1.4,3.5c0.2-0.2,1.3-1,3.7-1.9
	L4519.5,2004.8z M4518.1,2042.7l47.5,14.8l7.1-22.9l-47.5-14.8L4518.1,2042.7z M4575.6,2056.2l109.9-69.3l-12.8-20.3l-109.9,69.3
	L4575.6,2056.2z M4685.3,1987c0.2-0.1,0.2-0.1-0.1,0c-0.1,0-1.5,0.3-3.6-0.4c-1.1-0.4-2.9-1.2-4.5-3.1c-1.8-2.1-2.6-4.7-2.5-7.4
	c0.1-2.4,1-4.1,1.5-4.9c0.5-0.8,1-1.3,1.1-1.4l15.9,17.9c1.7-1.5,5.2-5.1,5.5-10.8c0.1-3.2-1-6.4-3.1-8.9c-2-2.3-4.3-3.5-6.1-4.1
	c-3.4-1.2-6.7-0.9-9.1-0.4c-2.6,0.5-5.1,1.6-7.5,3L4685.3,1987z"/>
<linearGradient id="SVGID_6_" gradientUnits="userSpaceOnUse" x1="4628" y1="1680" x2="4628" y2="1296" gradientTransform="matrix(1 0 0 -1 0 3508)">
	<stop  offset="0" style="stop-color:#17AEFF"/>
	<stop  offset="1" style="stop-color:#17AEFF"/>
</linearGradient>
<path class="st9" d="M4628,2212c106,0,192-86,192-192s-86-192-192-192s-192,86-192,192S4522,2212,4628,2212z"/>
<path class="st10" d="M4592.8,2108c-6.2,0-5.2-2.4-7.3-8.3l-18.3-60.2L4708,1956"/>
<path class="st11" d="M4592.8,2108c4.8,0,6.9-2.2,9.6-4.8l25.6-24.9l-31.9-19.3"/>
<linearGradient id="SVGID_7_" gradientUnits="userSpaceOnUse" x1="4635.7178" y1="1480.8041" x2="4665.6777" y2="1412.5341" gradientTransform="matrix(1 0 0 -1 0 3508)">
	<stop  offset="0" style="stop-color:#EFF7FC"/>
	<stop  offset="1" style="stop-color:#FFFFFF"/>
</linearGradient>
<path class="st12" d="M4596.1,2059.1l77.4,57.2c8.8,4.9,15.2,2.4,17.4-8.2l31.5-148.4c3.2-12.9-4.9-18.8-13.4-15L4524,2016
	c-12.6,5.1-12.5,12.1-2.3,15.2l47.5,14.8l109.9-69.3c5.2-3.1,10-1.5,6.1,2"/>
<g>
	<polygon class="st13" points="4570.4,3110.4 4481.9,3287.3 4464.2,3322.6 4446.5,3358.1 4428.9,3322.6 4411.1,3287.3 
		4393.4,3251.8 4411.1,3216.5 4428.9,3181.2 4446.5,3145.7 4411.1,3145.7 4393.4,3181.1 4375.7,3216.5 4358.1,3181.2 4340.4,3145.7 
		4322.6,3110.4 4358.1,3110.4 4375.7,3145.7 4393.4,3110.4 4499.6,3110.4 4446.5,3216.5 4428.9,3251.8 4446.6,3287.5 4464.4,3252.3 
		4536.5,3110.4 	"/>
	<g id="VIDEO_LESSON">
		<path class="st14" d="M4592.5,3234.2l-25.2-75.1h16.1l18.3,57.8l18.2-57.8h16.2l-25.3,75.1H4592.5z"/>
		<path class="st14" d="M4647.4,3174.1c-2.2,0-4.2-0.9-6-2.5c-1.6-1.6-2.5-3.6-2.5-6c0-2.2,0.9-4.2,2.5-6c1.6-1.7,3.6-2.6,6-2.6
			s4.4,0.9,6.1,2.6c1.6,1.7,2.5,3.7,2.5,6c0,2.2-0.9,4.2-2.5,6C4651.8,3173.2,4649.8,3174.1,4647.4,3174.1z M4640.6,3234.2v-53.7
			h13.9v53.7H4640.6z"/>
		<path class="st14" d="M4707.7,3159.1h13.9v75.1h-13.9v-6.4c-4.1,5.2-9.9,7.9-17.3,7.9c-7.2,0-13.4-2.7-18.5-8.2
			s-7.6-12.2-7.6-20.1c0-7.9,2.5-14.6,7.6-20.1s11.2-8.2,18.5-8.2c7.5,0,13.4,2.6,17.3,7.9V3159.1z M4682.2,3218.3
			c2.9,2.9,6.4,4.2,10.7,4.2c4.2,0,7.9-1.4,10.6-4.2c2.7-2.9,4.2-6.5,4.2-10.9c0-4.5-1.4-8.1-4.2-10.9c-2.7-2.9-6.4-4.2-10.6-4.2
			c-4.2,0-7.9,1.4-10.7,4.2c-2.9,2.9-4.2,6.5-4.2,10.9C4678,3211.8,4679.4,3215.4,4682.2,3218.3z"/>
		<path class="st14" d="M4746,3213c1.9,6.7,6.9,10.1,15.1,10.1c5.2,0,9.4-1.7,12-5.4l11.1,6.5c-5.2,7.6-13.1,11.5-23.3,11.5
			c-8.9,0-16-2.6-21.3-8.1c-5.4-5.4-8.1-12.1-8.1-20.3c0-8.1,2.6-14.9,8-20.2c5.2-5.4,12.1-8.1,20.3-8.1c7.9,0,14.4,2.7,19.5,8.1
			c5.1,5.5,7.6,12.1,7.6,20.2c0,1.7-0.1,3.7-0.5,5.7H4746L4746,3213z M4745.8,3202.3h27.3c-0.7-3.6-2.4-6.4-4.9-8.1
			c-2.5-1.7-5.2-2.6-8.5-2.6c-3.7,0-6.7,1-9.2,2.9C4748.2,3196.2,4746.5,3198.9,4745.8,3202.3z"/>
		<path class="st14" d="M4841.9,3227.5c-5.5,5.5-12.2,8.2-20.2,8.2s-14.6-2.7-20.1-8.2c-5.5-5.5-8.2-12.2-8.2-20.1
			c0-7.9,2.7-14.6,8.2-20.1c5.5-5.5,12.2-8.2,20.1-8.2c7.9,0,14.7,2.7,20.2,8.2c5.5,5.5,8.2,12.2,8.2,20.1
			C4850.1,3215.3,4847.4,3222,4841.9,3227.5z M4811.4,3218c2.7,2.7,6.2,4.2,10.4,4.2c4.1,0,7.6-1.4,10.4-4.2
			c2.7-2.7,4.2-6.4,4.2-10.6c0-4.2-1.4-7.9-4.2-10.6c-2.7-2.7-6.2-4.2-10.4-4.2c-4.1,0-7.6,1.4-10.4,4.2c-2.7,2.7-4.1,6.4-4.1,10.6
			C4807.3,3211.6,4808.7,3215.1,4811.4,3218z"/>
		<path class="st14" d="M4543.6,3324.9h28.7v14.2h-43.4v-75.1h14.9v60.9H4543.6z"/>
		<path class="st14" d="M4590.5,3317.9c1.9,6.7,6.9,10.1,15.1,10.1c5.2,0,9.4-1.7,12-5.4l11.1,6.5c-5.2,7.6-13.1,11.5-23.3,11.5
			c-8.9,0-16-2.7-21.3-8.1s-8.1-12.1-8.1-20.3c0-8.1,2.6-14.9,8-20.2c5.2-5.4,12.1-8.1,20.3-8.1c7.9,0,14.4,2.7,19.5,8.1
			c5.1,5.5,7.6,12.1,7.6,20.2c0,1.7-0.1,3.7-0.5,5.7H4590.5L4590.5,3317.9z M4590.4,3307.1h27.3c-0.7-3.6-2.4-6.4-4.9-8.1
			c-2.5-1.7-5.2-2.6-8.5-2.6c-3.7,0-6.7,1-9.2,2.9C4592.8,3301,4591.1,3303.8,4590.4,3307.1z"/>
		<path class="st14" d="M4651.8,3300.6c0,1.4,1,2.6,2.9,3.5c1.9,0.9,4.2,1.6,6.9,2.4c2.7,0.6,5.5,1.5,8.1,2.6c2.7,1,5,2.7,6.9,5.2
			c1.9,2.5,2.9,5.5,2.9,9.1c0,5.5-2,9.7-6.1,12.7c-4.1,3-9.2,4.5-15.4,4.5c-11,0-18.5-4.2-22.6-12.7l12-6.7c1.6,4.6,5.1,7,10.5,7
			c5,0,7.4-1.5,7.4-4.6c0-1.4-1-2.6-2.9-3.5c-1.9-0.9-4.2-1.7-6.9-2.4c-2.7-0.7-5.5-1.6-8.1-2.6c-2.7-1.1-5-2.7-6.9-5.1
			c-1.9-2.4-2.9-5.2-2.9-8.7c0-5.2,2-9.5,5.9-12.5c3.9-3,8.7-4.6,14.6-4.6c4.4,0,8.4,1,11.9,3c3.6,2,6.4,4.7,8.5,8.5l-11.9,6.5
			c-1.7-3.6-4.6-5.5-8.6-5.5c-1.7,0-3.2,0.4-4.5,1.1C4652.4,3298.1,4651.8,3299.3,4651.8,3300.6z"/>
		<path class="st14" d="M4698.5,3300.6c0,1.4,1,2.6,2.9,3.5c1.9,0.9,4.2,1.6,6.9,2.4c2.7,0.6,5.5,1.5,8.1,2.6c2.7,1,5,2.7,6.9,5.2
			c1.9,2.5,2.9,5.5,2.9,9.1c0,5.5-2,9.7-6.1,12.7c-4.1,3-9.2,4.5-15.4,4.5c-11,0-18.5-4.2-22.6-12.7l12-6.7c1.6,4.6,5.1,7,10.5,7
			c5,0,7.4-1.5,7.4-4.6c0-1.4-1-2.6-2.9-3.5c-1.9-0.9-4.2-1.7-6.9-2.4c-2.7-0.7-5.5-1.6-8.1-2.6c-2.7-1.1-5-2.7-6.9-5.1
			c-1.9-2.4-2.9-5.2-2.9-8.7c0-5.2,2-9.5,5.9-12.5c3.9-3,8.7-4.6,14.6-4.6c4.4,0,8.4,1,11.9,3c3.6,2,6.4,4.7,8.5,8.5l-11.9,6.5
			c-1.7-3.6-4.6-5.5-8.6-5.5c-1.7,0-3.2,0.4-4.5,1.1C4699,3298.1,4698.5,3299.3,4698.5,3300.6z"/>
		<path class="st14" d="M4780,3332.3c-5.5,5.5-12.2,8.2-20.2,8.2c-8,0-14.6-2.7-20.1-8.2c-5.5-5.5-8.2-12.2-8.2-20.1
			c0-8,2.7-14.6,8.2-20.1c5.5-5.5,12.2-8.2,20.1-8.2c7.9,0,14.7,2.7,20.2,8.2s8.2,12.2,8.2,20.1S4785.5,3326.9,4780,3332.3z
			 M4749.4,3322.9c2.7,2.7,6.2,4.2,10.4,4.2c4.1,0,7.6-1.4,10.4-4.2c2.7-2.7,4.2-6.4,4.2-10.6c0-4.2-1.4-7.9-4.2-10.6
			c-2.7-2.7-6.2-4.2-10.4-4.2c-4.1,0-7.6,1.4-10.4,4.2c-2.7,2.7-4.1,6.4-4.1,10.6C4745.3,3316.5,4746.7,3320,4749.4,3322.9z"/>
		<path class="st14" d="M4827.9,3283.9c5.9,0,10.7,2,14.6,5.9c3.9,4,5.7,9.4,5.7,16.4v33h-13.9v-31.2c0-3.6-1-6.4-2.9-8.2
			c-1.9-1.9-4.5-2.9-7.7-2.9c-3.6,0-6.5,1.1-8.6,3.4c-2.1,2.2-3.2,5.5-3.2,10v29h-13.9v-53.7h13.9v6
			C4815.3,3286.4,4820.5,3283.9,4827.9,3283.9z"/>
	</g>
</g>
</svg>
